<?xml version="1.0" encoding="UTF-8"?>
<svg width="638px" height="351px" viewBox="0 0 638 351" version="1.1" xmlns="http://www.w3.org/2000/svg" xmlns:xlink="http://www.w3.org/1999/xlink">
    <title>DISCOVERYOURTAITIKO Copy 3</title>
    <defs>
        <path d="M67.3313433,285.015481 C76.3880597,283.482386 83.6776119,279.819142 89.2,274.025748 C94.7223881,268.232355 98.2935323,260.486096 99.9134328,250.786971 L103.558209,228.68996 C103.852736,226.448263 104,224.852516 104,223.902719 C104,217.254137 101.588557,212.365392 96.7656716,209.236484 C91.9427861,206.107576 85.3711443,205.247349 77.0507463,206.655802 L42.038806,212.582524 L30.2208955,280.995784 C30.0736318,282.043571 30,282.750118 30,283.115424 C30,285.59951 30.8099502,287.453325 32.4298507,288.676871 C34.0497512,289.900416 36.2587065,290.275369 39.0567164,289.80173 L67.3313433,285.015481 Z M46,276 L54.7272727,224.830528 L75.5636364,221.280365 C79.3454545,220.636007 82.3636364,221.102336 84.6181818,222.679351 C86.8727273,224.256365 88,226.715483 88,230.056703 C88,231.291502 87.9272727,232.248151 87.7818182,232.926651 L84.1818182,253.587352 C82.2909091,264.514273 76.6545455,270.776985 67.2727273,272.375488 L46,276 Z M122.333333,275.407079 L136,196 L120.666667,198.592921 L107,278 L122.333333,275.407079 Z M174.4688,267.306441 C182.0848,265.989809 188.304533,263.168891 193.128,258.843684 C197.951467,254.518478 200.870933,249.144269 201.8864,242.721058 L203.0832,235.237472 C203.228267,233.889359 203.3008,232.958046 203.3008,232.443533 C203.3008,224.652333 197.498133,220.694103 185.8928,220.568844 L166.6352,220.36995 C162.355733,220.30125 160.216,218.796863 160.216,215.856787 C160.216,215.342274 160.252267,214.931744 160.3248,214.625197 L160.8688,211.444073 C161.231467,209.176319 162.464533,207.199105 164.568,205.51243 C166.671467,203.825755 169.2464,202.719091 172.2928,202.192439 L184.4784,200.085829 C186.799467,199.68457 188.630933,200.066219 189.9728,201.230777 C191.314667,202.395335 191.9856,204.190395 191.9856,206.615957 C191.9856,207.056969 191.913067,207.878029 191.768,209.079138 L206.5648,206.521111 C206.854933,205.000916 207,203.395547 207,201.705003 C207,195.898354 205.0416,191.624673 201.1248,188.88396 C197.208,186.143247 191.8768,185.35597 185.1312,186.522129 L172.9456,188.628739 C165.619733,189.895213 159.581333,192.666408 154.8304,196.942324 C150.079467,201.21824 147.16,206.537322 146.072,212.899571 L144.984,219.26182 C144.7664,220.401966 144.6576,221.523304 144.6576,222.625832 C144.6576,230.564036 150.351467,234.541075 161.7392,234.556948 L180.9968,234.64559 C183.1728,234.636919 184.841067,235.028406 186.0016,235.820052 C187.162133,236.611698 187.7424,237.74254 187.7424,239.212578 L187.6336,240.223662 L186.9808,244.195365 C186.618133,246.536621 185.312533,248.581501 183.064,250.330005 C180.815467,252.07851 178.095467,253.228628 174.904,253.780359 L162.936,255.849351 C160.179733,256.325847 158.003733,255.856755 156.408,254.442077 C154.812267,253.0274 154.0144,250.850023 154.0144,247.909947 C154.0144,247.395434 154.086933,246.464121 154.232,245.116009 L139.4352,247.674035 C139.145067,249.414736 139,251.20386 139,253.041407 C139,259.289068 141.049067,263.896209 145.1472,266.86283 C149.245333,269.829451 154.8848,270.692064 162.0656,269.450669 L174.4688,267.306441 Z M251.325792,254.415987 C259.620412,252.997568 266.557064,249.180946 272.135747,242.966119 C277.714429,236.751293 281.347914,228.790519 283.036199,219.083797 L268.06184,221.644481 C267.107592,226.958141 265.217446,231.309774 262.391403,234.699382 C259.565359,238.08899 256.097034,240.13526 251.986425,240.838193 L240.205128,242.85285 C236.828557,243.430259 234.186023,242.77847 232.277526,240.897484 C230.36903,239.016498 229.414781,236.19976 229.414781,232.447268 C229.414781,231.93222 229.474232,231.153739 229.593134,230.111824 L229.709609,229.154239 C229.753288,228.813539 229.801819,228.451335 229.855204,228.067626 L233.158371,208.519577 C234.039216,203.21847 235.947712,198.845304 238.883861,195.400079 C241.82001,191.954853 245.453494,189.861945 249.784314,189.121355 L261.3454,187.144356 C264.648567,186.579499 267.217697,187.133473 269.05279,188.806276 C270.887883,190.47908 271.80543,193.007782 271.80543,196.392382 C271.80543,197.569634 271.695324,198.802504 271.475113,200.090991 L286.449472,197.530307 C286.816491,195.260197 287,193.315781 287,191.697059 C287,184.854281 284.761187,179.792337 280.28356,176.511228 C275.805933,173.230118 269.713424,172.248563 262.006033,173.566563 L250.444947,175.543562 C241.856712,177.01219 234.7182,180.826542 229.029412,186.986619 C223.340623,193.146695 219.688788,200.963451 218.073906,210.436886 L214.550528,231.347 C214.183509,233.764267 214,235.81905 214,237.51135 C214,244.648441 216.293866,249.921706 220.881599,253.331143 C225.469331,256.74058 231.690297,257.773747 239.544495,256.430643 L251.325792,254.415987 Z M326.829912,241.431294 C335.774194,239.900512 343.1239,236.050031 348.879032,229.879851 C354.634164,223.709671 358.318182,215.816193 359.931085,206.199419 L363.450147,185.738895 C363.816716,183.322588 364,181.231845 364,179.466667 C364,172.332408 361.63563,167.055395 356.906891,163.635631 C352.178152,160.215866 345.708211,159.208638 337.497067,160.613947 L325.840176,162.608983 C316.969208,164.127217 309.711144,167.962014 304.065982,174.113373 C298.420821,180.264732 294.755132,188.155073 293.068915,197.784395 L289.549853,218.244919 C289.183284,220.661226 289,222.678419 289,224.296499 C289,229.003639 290.06305,232.958837 292.18915,236.162093 C294.315249,239.365348 297.339443,241.605858 301.26173,242.883623 C305.184018,244.161388 309.821114,244.34229 315.173021,243.42633 L326.829912,241.431294 Z M316.55,230.77741 C312.956667,231.391313 310.133333,230.735359 308.08,228.809548 C306.026667,226.883736 305,223.974694 305,220.082419 C305,218.760515 305.11,217.383098 305.33,215.950168 L308.63,196.879717 C309.583333,191.429227 311.563333,186.978362 314.57,183.527122 C317.576667,180.075882 321.28,177.974403 325.68,177.222685 L337.34,175.230631 C341.006667,174.604199 343.866667,175.253888 345.92,177.1797 C347.973333,179.105511 349,182.014554 349,185.906828 C349,187.155293 348.89,188.53271 348.67,190.039079 L345.37,209.10953 C344.416667,214.560021 342.436667,219.010886 339.43,222.462125 C336.423333,225.913365 332.683333,228.021109 328.21,228.785356 L316.55,230.77741 Z M401.510638,228.6324 L445,145 L428.469605,147.772125 L397.62766,210.198747 L397.405775,210.235957 L387.31003,154.674529 L372,157.242001 L386.31155,224.201674 C387.199088,228.705897 389.861702,230.585911 394.299392,229.841716 L401.510638,228.6324 Z M497.286604,212.686709 L499.719626,199.183731 L456.035826,206.536429 L459.464174,186.537415 L499.830218,179.74315 L502.152648,166.258786 L461.786604,173.053051 L464.993769,154.837061 L508.67757,147.484364 L511,134 L452.054517,143.921488 L440.221184,212.035208 C440.073728,213.078407 440,213.781861 440,214.145568 C440,216.618777 440.811007,218.464476 442.433022,219.682664 C444.055036,220.900852 446.266874,221.274163 449.068536,220.802598 L497.286604,212.686709 Z M524.264574,207.425723 L529.13154,179.159292 L547.825112,176.006735 C550.332337,175.583907 552.286497,176.019766 553.687593,177.314313 C555.08869,178.60886 556.010463,180.786106 556.452915,183.846052 L559.107623,201.549656 L574.925262,198.882108 L572.15994,179.885016 C571.643747,176.473022 570.961634,173.854426 570.113602,172.029227 C569.265571,170.204029 567.772297,168.706337 565.633782,167.536152 L565.633782,167.317461 C569.984554,165.125794 573.524165,162.396629 576.252616,159.129965 C578.981066,155.863302 580.67713,152.27869 581.340807,148.376131 L582.668161,140.498116 C582.889387,139.221562 583,138.073008 583,137.052452 C583,132.168366 581.101146,128.588617 577.303438,126.313205 C573.50573,124.037793 568.399103,123.441058 561.983558,124.523001 L522.605381,131.163889 L509,210 L524.264574,207.425723 Z M531,165 L534.984615,141.444861 L559.969231,137.134942 C561.835897,136.812937 563.307692,137.067221 564.384615,137.897794 C565.461538,138.728367 566,140.014808 566,141.757115 C566,142.337884 565.964103,142.779653 565.892308,143.082422 L564.707692,150.364895 C564.276923,153.052664 563.038462,155.389739 560.992308,157.37612 C558.946154,159.3625 556.415385,160.615772 553.4,161.135935 L531,165 Z M277.073171,350.432941 L282.341463,319.88155 L319,267 L301.658537,269.939096 L276.304878,307.05675 L262.585366,276.561363 L247,279.20283 L267.195122,322.448609 L261.926829,353 L277.073171,350.432941 Z M348.829912,340.431294 C357.774194,338.900512 365.1239,335.050031 370.879032,328.879851 C376.634164,322.709671 380.318182,314.816193 381.931085,305.199419 L385.450147,284.738895 C385.816716,282.322588 386,280.231845 386,278.466667 C386,271.332408 383.63563,266.055395 378.906891,262.635631 C374.178152,259.215866 367.708211,258.208638 359.497067,259.613947 L347.840176,261.608983 C338.969208,263.127217 331.711144,266.962014 326.065982,273.113373 C320.420821,279.264732 316.755132,287.155073 315.068915,296.784395 L311.549853,317.244919 C311.183284,319.661226 311,321.678419 311,323.296499 C311,328.003639 312.06305,331.958837 314.18915,335.162093 C316.315249,338.365348 319.339443,340.605858 323.26173,341.883623 C327.184018,343.161388 331.821114,343.34229 337.173021,342.42633 L348.829912,340.431294 Z M338.55,328.77741 C334.956667,329.391313 332.133333,328.735359 330.08,326.809548 C328.026667,324.883736 327,321.974694 327,318.082419 C327,316.760515 327.11,315.383098 327.33,313.950168 L330.63,294.879717 C331.583333,289.429227 333.563333,284.978362 336.57,281.527122 C339.576667,278.075882 343.28,275.974403 347.68,275.222685 L359.34,273.230631 C363.006667,272.604199 365.866667,273.253888 367.92,275.1797 C369.973333,277.105511 371,280.014554 371,283.906828 C371,285.155293 370.89,286.53271 370.67,288.039079 L367.37,307.10953 C366.416667,312.560021 364.436667,317.010886 361.43,320.462125 C358.423333,323.913365 354.683333,326.021109 350.21,326.785356 L338.55,328.77741 Z M428.921626,325.465776 C437.049347,324.067093 443.761974,320.477954 449.059507,314.698358 C454.357039,308.918763 457.767779,301.542301 459.291727,292.568972 L468,241 L452.978229,243.585066 L444.37881,294.696092 C443.580552,299.445208 441.875181,303.343896 439.2627,306.392155 C436.650218,309.440413 433.4209,311.295481 429.574746,311.957358 L418.036284,313.942988 C414.988389,314.467494 412.611756,313.888253 410.906386,312.205264 C409.201016,310.522275 408.348331,307.997127 408.348331,304.629821 C408.348331,303.458584 408.457184,302.195412 408.674891,300.840306 L417.274311,249.72928 L402.25254,252.314345 L393.544267,303.883317 C393.181422,305.995423 393,307.856702 393,309.467153 C393,316.128564 395.177068,321.115986 399.531205,324.42942 C403.885341,327.742854 409.835994,328.750183 417.383164,327.451406 L428.921626,325.465776 Z M483.264574,315.425723 L488.13154,287.159292 L506.825112,284.006735 C509.332337,283.583907 511.286497,284.019766 512.687593,285.314313 C514.08869,286.60886 515.010463,288.786106 515.452915,291.846052 L518.107623,309.549656 L533.925262,306.882108 L531.15994,287.885016 C530.643747,284.473022 529.961634,281.854426 529.113602,280.029227 C528.265571,278.204029 526.772297,276.706337 524.633782,275.536152 L524.633782,275.317461 C528.984554,273.125794 532.524165,270.396629 535.252616,267.129965 C537.981066,263.863302 539.67713,260.27869 540.340807,256.376131 L541.668161,248.498116 C541.889387,247.221562 542,246.073008 542,245.052452 C542,240.168366 540.101146,236.588617 536.303438,234.313205 C532.50573,232.037793 527.399103,231.441058 520.983558,232.523001 L481.605381,239.163889 L468,318 L483.264574,315.425723 Z M492,275 L495.984615,251.444861 L520.969231,247.134942 C522.835897,246.812937 524.307692,247.067221 525.384615,247.897794 C526.461538,248.728367 527,250.014808 527,251.757115 C527,252.337884 526.964103,252.779653 526.892308,253.082422 L525.707692,260.364895 C525.276923,263.052664 524.038462,265.389739 521.992308,267.37612 C519.946154,269.3625 517.415385,270.615772 514.4,271.135935 L492,275 Z M275.238806,456.412231 L286.402985,390.746919 L310.701493,386.583987 L313,373 L249.298507,383.913634 L247,397.497621 L271.298507,393.334688 L260.134328,459 L275.238806,456.412231 Z M307.383358,451.19769 L317.279346,431.535306 L346.197623,426.588946 L349.716196,443.956821 L365,441.342585 L350.046062,373.344469 C349.093115,369.097722 346.234274,367.381842 341.469539,368.196832 L334.652303,369.362894 L291,454 L307.383358,451.19769 Z M345,414.396125 L324,418 L339.526596,387.01917 L339.638298,387 L345,414.396125 Z M390.333333,436.407079 L404,357 L388.666667,359.592921 L375,439 L390.333333,436.407079 Z M439.238806,428.412231 L450.402985,362.746919 L474.701493,358.583987 L477,345 L413.298507,355.913634 L411,369.497621 L435.298507,365.334688 L424.134328,431 L439.238806,428.412231 Z M488.333333,420.407079 L502,341 L486.666667,343.592921 L473,423 L488.333333,420.407079 Z M520.181946,415.390377 L524.472496,390.044939 L533.933709,379.883468 L554.066291,409.566002 L571.448519,406.578173 L545.375176,367.497219 L583,327 L563.527504,330.347125 L527.992948,369.154889 L533.713681,335.471818 L518.531735,338.081441 L505,418 L520.181946,415.390377 Z M614.829912,399.431294 C623.774194,397.900512 631.1239,394.050031 636.879032,387.879851 C642.634164,381.709671 646.318182,373.816193 647.931085,364.199419 L651.450147,343.738895 C651.816716,341.322588 652,339.231845 652,337.466667 C652,330.332408 649.63563,325.055395 644.906891,321.635631 C640.178152,318.215866 633.708211,317.208638 625.497067,318.613947 L613.840176,320.608983 C604.969208,322.127217 597.711144,325.962014 592.065982,332.113373 C586.420821,338.264732 582.755132,346.155073 581.068915,355.784395 L577.549853,376.244919 C577.183284,378.661226 577,380.678419 577,382.296499 C577,387.003639 578.06305,390.958837 580.18915,394.162093 C582.315249,397.365348 585.339443,399.605858 589.26173,400.883623 C593.184018,402.161388 597.821114,402.34229 603.173021,401.42633 L614.829912,399.431294 Z M604.55,387.77741 C600.956667,388.391313 598.133333,387.735359 596.08,385.809548 C594.026667,383.883736 593,380.974694 593,377.082419 C593,375.760515 593.11,374.383098 593.33,372.950168 L596.63,353.879717 C597.583333,348.429227 599.563333,343.978362 602.57,340.527122 C605.576667,337.075882 609.28,334.974403 613.68,334.222685 L625.34,332.230631 C629.006667,331.604199 631.866667,332.253888 633.92,334.1797 C635.973333,336.105511 637,339.014554 637,342.906828 C637,344.155293 636.89,345.53271 636.67,347.039079 L633.37,366.10953 C632.416667,371.560021 630.436667,376.010886 627.43,379.462125 C624.423333,382.913365 620.683333,385.021109 616.21,385.785356 L604.55,387.77741 Z" id="path-1"></path>
        <filter x="-2.0%" y="-3.1%" width="104.0%" height="107.5%" filterUnits="objectBoundingBox" id="filter-2">
            <feMorphology radius="1" operator="dilate" in="SourceAlpha" result="shadowSpreadOuter1"></feMorphology>
            <feOffset dx="0" dy="2" in="shadowSpreadOuter1" result="shadowOffsetOuter1"></feOffset>
            <feMorphology radius="1" operator="erode" in="SourceAlpha" result="shadowInner"></feMorphology>
            <feOffset dx="0" dy="2" in="shadowInner" result="shadowInner"></feOffset>
            <feComposite in="shadowOffsetOuter1" in2="shadowInner" operator="out" result="shadowOffsetOuter1"></feComposite>
            <feGaussianBlur stdDeviation="3.5" in="shadowOffsetOuter1" result="shadowBlurOuter1"></feGaussianBlur>
            <feColorMatrix values="0 0 0 0 0.694471247   0 0 0 0 0.641003716   0 0 0 0 1  0 0 0 1 0" type="matrix" in="shadowBlurOuter1"></feColorMatrix>
        </filter>
    </defs>
    <g id="Page-1" stroke="none" stroke-width="1" fill="none" fill-rule="evenodd" opacity="0.372039795">
        <g id="Home" transform="translate(-22.000000, -118.000000)" fill-rule="nonzero">
            <g id="DISCOVERYOURTAITIKO-Copy-3">
                <use fill="black" fill-opacity="1" filter="url(#filter-2)" xlink:href="#path-1"></use>
                <use stroke="#8772FF" stroke-width="2" xlink:href="#path-1"></use>
            </g>
        </g>
    </g>
</svg>