<?xml version="1.0" encoding="UTF-8"?>
<svg width="20px" height="15px" viewBox="0 0 20 15" version="1.1" xmlns="http://www.w3.org/2000/svg" xmlns:xlink="http://www.w3.org/1999/xlink">
    <title>1D95D074-3566-42D8-9C08-D123ADDE0BDC</title>
    <defs>
        <polygon id="path-1" points="0 0 19.864 0 19.864 14.25 0 14.25"></polygon>
    </defs>
    <g id="Page-1" stroke="none" stroke-width="1" fill="none" fill-rule="evenodd">
        <g id="Home" transform="translate(-852.000000, -9.000000)">
            <g id="RRSS" transform="translate(731.000000, 9.000000)">
                <g id="Discord" transform="translate(121.000000, 0.750000)">
                    <mask id="mask-2" fill="white">
                        <use xlink:href="#path-1"></use>
                    </mask>
                    <g id="Clip-2"></g>
                    <path d="M12.8664545,9.796875 C11.9937929,9.796875 11.2863636,8.99932031 11.2863636,8.015625 C11.2863636,7.03192969 11.9937929,6.234375 12.8664545,6.234375 C13.7391162,6.234375 14.4465455,7.03192969 14.4465455,8.015625 C14.4465455,8.99932031 13.7391162,9.796875 12.8664545,9.796875 M6.99754545,9.796875 C6.12488382,9.796875 5.41745455,8.99932031 5.41745455,8.015625 C5.41745455,7.03192969 6.12488382,6.234375 6.99754545,6.234375 C7.87020709,6.234375 8.57763636,7.03192969 8.57763636,8.015625 C8.57763636,8.99932031 7.87020709,9.796875 6.99754545,9.796875 M17.1552727,1.78125 C17.1552727,1.78125 15.0853536,0.18346875 12.6407273,0 L12.4204175,0.434625 C14.6307389,0.968109375 15.6447058,1.73271094 16.7038182,2.671875 C14.8776845,1.75230469 13.0745751,0.890625 9.932,0.890625 C6.78942491,0.890625 4.98631545,1.75230469 3.16018182,2.671875 C4.21929418,1.73271094 5.42558073,0.883945312 7.44358255,0.434625 L7.22327273,0 C4.65855945,0.239132812 2.70872727,1.78125 2.70872727,1.78125 C2.70872727,1.78125 0.396828545,5.08769531 0,11.578125 C2.33040836,14.2290703 5.86890909,14.25 5.86890909,14.25 L6.60884309,13.2769922 C5.35289655,12.846375 3.93442636,12.0773203 2.70872727,10.6875 C4.17053709,11.778293 6.37679545,12.9140625 9.932,12.9140625 C13.4872045,12.9140625 15.6934629,11.778293 17.1552727,10.6875 C15.9295736,12.0773203 14.5111035,12.846375 13.2551569,13.2769922 L13.9950909,14.25 C13.9950909,14.25 17.5335916,14.2290703 19.864,11.578125 C19.4671715,5.08769531 17.1552727,1.78125 17.1552727,1.78125" id="Fill-1" fill="#4739AC" mask="url(#mask-2)"></path>
                </g>
            </g>
        </g>
    </g>
</svg>