<?xml version="1.0" encoding="UTF-8"?>
<svg width="19px" height="18px" viewBox="0 0 19 18" version="1.1" xmlns="http://www.w3.org/2000/svg" xmlns:xlink="http://www.w3.org/1999/xlink">
    <title>3F8FE61A-A08A-4E08-ADD1-5FCE75FBCBFF</title>
    <g id="Page-1" stroke="none" stroke-width="1" fill="none" fill-rule="evenodd" stroke-linejoin="round">
        <g id="Market-Copy" transform="translate(-246.000000, -580.000000)" fill="#ED185E" stroke="#B7F5FE" stroke-width="2">
            <g id="Filters" transform="translate(162.000000, 209.000000)">
                <g id="lives" transform="translate(0.000000, 318.545959)">
                    <g id="Group-3" transform="translate(86.000000, 54.454041)">
                        <path d="M11.1322177,-1 C12.4770924,-1 13.695028,-0.451669263 14.5765448,0.435755419 C15.4556786,1.32078116 16,2.54324427 16,3.89370409 C16,4.17607741 15.9759072,4.4526185 15.9301718,4.72179364 C14.447645,10.401104 8.01052644,14.8269931 8.01052644,14.8269931 C8.01052644,14.8269931 7.79999599,14.9717449 7.42076483,15.2050995 C7.23767769,15.0779709 7.05222642,14.9469138 6.86439812,14.8118139 C0.426367137,10.1811077 -0.62024421,6.68718401 -0.810465501,5.30374646 C-0.933621952,4.87113106 -1,4.41400964 -1,3.94120322 C-1,2.5774951 -0.450437391,1.34317203 0.437197741,0.449588659 C1.32721547,-0.446393273 2.55693239,-1 3.91496814,-1 C4.92871907,-1 5.87069085,-0.691252728 6.65351393,-0.162398346 C6.97617569,0.0555833277 7.27172068,0.311093848 7.53401053,0.597781098 C7.79269067,0.312477163 8.08448217,0.0581053172 8.40327097,-0.159169902 C9.18186292,-0.689830761 10.1210097,-1 11.1322177,-1 Z" id="Fill-1"></path>
                    </g>
                </g>
            </g>
        </g>
    </g>
</svg>