<?xml version="1.0" encoding="UTF-8"?>
<svg width="135px" height="450px" viewBox="0 0 135 450" version="1.1" xmlns="http://www.w3.org/2000/svg" xmlns:xlink="http://www.w3.org/1999/xlink">
    <title>0C8A4ACC-166E-494B-B38E-EDC40DB1B4A1</title>
    <defs>
        <rect id="path-1" x="0" y="0" width="135" height="450"></rect>
        <polygon id="path-3" points="0 0 3.94885599 0 3.94885599 3.94885599 0 3.94885599"></polygon>
        <polygon id="path-5" points="0 0 3.94885599 0 3.94885599 3.94885599 0 3.94885599"></polygon>
        <polygon id="path-7" points="0 0 3.94885599 0 3.94885599 3.94885599 0 3.94885599"></polygon>
        <polygon id="path-9" points="0 0 3.94885599 0 3.94885599 3.94885599 0 3.94885599"></polygon>
        <polygon id="path-11" points="0 0 3.94885599 0 3.94885599 3.94885599 0 3.94885599"></polygon>
        <polygon id="path-13" points="0 0 3.94885599 0 3.94885599 3.94885599 0 3.94885599"></polygon>
        <polygon id="path-15" points="0 0 3.94885599 0 3.94885599 3.94885599 0 3.94885599"></polygon>
        <polygon id="path-17" points="0 0 3.94885599 0 3.94885599 3.94885599 0 3.94885599"></polygon>
        <polygon id="path-19" points="0 0 3.94885599 0 3.94885599 3.94885599 0 3.94885599"></polygon>
        <polygon id="path-21" points="0 0 3.94885599 0 3.94885599 3.94885599 0 3.94885599"></polygon>
        <polygon id="path-23" points="0 0 3.94885599 0 3.94885599 3.94885599 0 3.94885599"></polygon>
        <polygon id="path-25" points="0 0 3.94885599 0 3.94885599 3.94885599 0 3.94885599"></polygon>
        <polygon id="path-27" points="0 0 3.94885599 0 3.94885599 3.94885599 0 3.94885599"></polygon>
        <polygon id="path-29" points="0 0 3.94885599 0 3.94885599 3.94885599 0 3.94885599"></polygon>
        <polygon id="path-31" points="0 0 3.94885599 0 3.94885599 3.94885599 0 3.94885599"></polygon>
        <polygon id="path-33" points="0 0 3.94885599 0 3.94885599 3.94885599 0 3.94885599"></polygon>
        <polygon id="path-35" points="0 0 3.94885599 0 3.94885599 3.94885599 0 3.94885599"></polygon>
        <polygon id="path-37" points="0 0 3.94885599 0 3.94885599 3.94885599 0 3.94885599"></polygon>
        <polygon id="path-39" points="0 0 3.94885599 0 3.94885599 3.94885599 0 3.94885599"></polygon>
    </defs>
    <g id="Page-1" stroke="none" stroke-width="1" fill="none" fill-rule="evenodd">
        <g id="Home" transform="translate(0.000000, -1415.000000)">
            <g id="Capsules" transform="translate(0.000000, 1017.151306)">
                <g id="dots-texture" transform="translate(0.000000, 397.848694)">
                    <mask id="mask-2" fill="white">
                        <use xlink:href="#path-1"></use>
                    </mask>
                    <use id="Mask" fill="#F0F0F0" transform="translate(67.500000, 225.000000) scale(1, -1) translate(-67.500000, -225.000000) " xlink:href="#path-1"></use>
                    <g mask="url(#mask-2)">
                        <g transform="translate(-322.000000, 17.000000)">
                            <path d="M334.994616,1.97442799 C334.994616,3.06478375 334.110045,3.94885599 333.020188,3.94885599 C331.929333,3.94885599 331.04576,3.06478375 331.04576,1.97442799 C331.04576,0.883572761 331.929333,0 333.020188,0 C334.110045,0 334.994616,0.883572761 334.994616,1.97442799" id="Fill-837" fill="#583AFF"></path>
                            <path d="M334.994616,25.6675639 C334.994616,26.7584192 334.110045,27.6419919 333.020188,27.6419919 C331.929333,27.6419919 331.04576,26.7584192 331.04576,25.6675639 C331.04576,24.5767087 331.929333,23.6931359 333.020188,23.6931359 C334.110045,23.6931359 334.994616,24.5767087 334.994616,25.6675639" id="Fill-839" fill="#583AFF"></path>
                            <path d="M334.994616,48.7025572 C334.994616,49.7934124 334.110045,50.6769852 333.020188,50.6769852 C331.929333,50.6769852 331.04576,49.7934124 331.04576,48.7025572 C331.04576,47.6122014 331.929333,46.7281292 333.020188,46.7281292 C334.110045,46.7281292 334.994616,47.6122014 334.994616,48.7025572" id="Fill-841" fill="#583AFF"></path>
                            <path d="M334.994616,71.7375505 C334.994616,72.8279062 334.110045,73.7119785 333.020188,73.7119785 C331.929333,73.7119785 331.04576,72.8279062 331.04576,71.7375505 C331.04576,70.6466952 331.929333,69.7631225 333.020188,69.7631225 C334.110045,69.7631225 334.994616,70.6466952 334.994616,71.7375505" id="Fill-843" fill="#583AFF"></path>
                            <path d="M334.994616,94.7725437 C334.994616,95.863399 334.110045,96.7469717 333.020188,96.7469717 C331.929333,96.7469717 331.04576,95.863399 331.04576,94.7725437 C331.04576,93.6816885 331.929333,92.7981157 333.020188,92.7981157 C334.110045,92.7981157 334.994616,93.6816885 334.994616,94.7725437" id="Fill-845" fill="#583AFF"></path>
                            <path d="M334.994616,117.807537 C334.994616,118.898392 334.110045,119.781965 333.020188,119.781965 C331.929333,119.781965 331.04576,118.898392 331.04576,117.807537 C331.04576,116.717181 331.929333,115.833109 333.020188,115.833109 C334.110045,115.833109 334.994616,116.717181 334.994616,117.807537" id="Fill-847" fill="#583AFF"></path>
                            <path d="M334.994616,140.84253 C334.994616,141.932886 334.110045,142.816958 333.020188,142.816958 C331.929333,142.816958 331.04576,141.932886 331.04576,140.84253 C331.04576,139.751675 331.929333,138.868102 333.020188,138.868102 C334.110045,138.868102 334.994616,139.751675 334.994616,140.84253" id="Fill-849" fill="#583AFF"></path>
                            <path d="M334.994616,163.877524 C334.994616,164.967879 334.110045,165.851952 333.020188,165.851952 C331.929333,165.851952 331.04576,164.967879 331.04576,163.877524 C331.04576,162.786668 331.929333,161.903096 333.020188,161.903096 C334.110045,161.903096 334.994616,162.786668 334.994616,163.877524" id="Fill-851" fill="#583AFF"></path>
                            <path d="M334.994616,186.912517 C334.994616,188.003372 334.110045,188.886945 333.020188,188.886945 C331.929333,188.886945 331.04576,188.003372 331.04576,186.912517 C331.04576,185.821662 331.929333,184.938089 333.020188,184.938089 C334.110045,184.938089 334.994616,185.821662 334.994616,186.912517" id="Fill-853" fill="#583AFF"></path>
                            <path d="M334.994616,209.94751 C334.994616,211.038365 334.110045,211.921938 333.020188,211.921938 C331.929333,211.921938 331.04576,211.038365 331.04576,209.94751 C331.04576,208.857154 331.929333,207.973082 333.020188,207.973082 C334.110045,207.973082 334.994616,208.857154 334.994616,209.94751" id="Fill-855" fill="#583AFF"></path>
                            <path d="M334.994616,232.982503 C334.994616,234.072859 334.110045,234.956931 333.020188,234.956931 C331.929333,234.956931 331.04576,234.072859 331.04576,232.982503 C331.04576,231.891648 331.929333,231.008075 333.020188,231.008075 C334.110045,231.008075 334.994616,231.891648 334.994616,232.982503" id="Fill-857" fill="#583AFF"></path>
                            <path d="M334.994616,256.017497 C334.994616,257.108352 334.110045,257.991925 333.020188,257.991925 C331.929333,257.991925 331.04576,257.108352 331.04576,256.017497 C331.04576,254.926641 331.929333,254.043069 333.020188,254.043069 C334.110045,254.043069 334.994616,254.926641 334.994616,256.017497" id="Fill-859" fill="#583AFF"></path>
                            <path d="M334.994616,279.710633 C334.994616,280.801488 334.110045,281.685061 333.020188,281.685061 C331.929333,281.685061 331.04576,280.801488 331.04576,279.710633 C331.04576,278.620277 331.929333,277.736205 333.020188,277.736205 C334.110045,277.736205 334.994616,278.620277 334.994616,279.710633" id="Fill-861" fill="#583AFF"></path>
                            <path d="M334.994616,302.745626 C334.994616,303.835982 334.110045,304.720054 333.020188,304.720054 C331.929333,304.720054 331.04576,303.835982 331.04576,302.745626 C331.04576,301.654771 331.929333,300.771198 333.020188,300.771198 C334.110045,300.771198 334.994616,301.654771 334.994616,302.745626" id="Fill-863" fill="#583AFF"></path>
                            <path d="M334.994616,325.780619 C334.994616,326.871474 334.110045,327.755047 333.020188,327.755047 C331.929333,327.755047 331.04576,326.871474 331.04576,325.780619 C331.04576,324.689764 331.929333,323.806191 333.020188,323.806191 C334.110045,323.806191 334.994616,324.689764 334.994616,325.780619" id="Fill-865" fill="#583AFF"></path>
                            <path d="M334.994616,348.815612 C334.994616,349.906468 334.110045,350.79004 333.020188,350.79004 C331.929333,350.79004 331.04576,349.906468 331.04576,348.815612 C331.04576,347.725257 331.929333,346.841184 333.020188,346.841184 C334.110045,346.841184 334.994616,347.725257 334.994616,348.815612" id="Fill-867" fill="#583AFF"></path>
                            <path d="M334.994616,371.850356 C334.994616,372.941349 334.110045,373.825034 333.020188,373.825034 C331.929333,373.825034 331.04576,372.941349 331.04576,371.850356 C331.04576,370.759862 331.929333,369.876178 333.020188,369.876178 C334.110045,369.876178 334.994616,370.759862 334.994616,371.850356" id="Fill-869" fill="#583AFF"></path>
                            <path d="M334.994616,394.885599 C334.994616,395.975955 334.110045,396.860027 333.020188,396.860027 C331.929333,396.860027 331.04576,395.975955 331.04576,394.885599 C331.04576,393.794744 331.929333,392.911171 333.020188,392.911171 C334.110045,392.911171 334.994616,393.794744 334.994616,394.885599" id="Fill-871" fill="#583AFF"></path>
                            <path d="M334.994616,417.920592 C334.994616,419.011447 334.110045,419.89502 333.020188,419.89502 C331.929333,419.89502 331.04576,419.011447 331.04576,417.920592 C331.04576,416.829737 331.929333,415.946164 333.020188,415.946164 C334.110045,415.946164 334.994616,416.829737 334.994616,417.920592" id="Fill-873" fill="#583AFF"></path>
                            <path d="M352.106326,1.97442799 C352.106326,3.06478375 351.222142,3.94885599 350.131648,3.94885599 C349.041154,3.94885599 348.15747,3.06478375 348.15747,1.97442799 C348.15747,0.883572761 349.041154,0 350.131648,0 C351.222142,0 352.106326,0.883572761 352.106326,1.97442799" id="Fill-881" fill="#583AFF"></path>
                            <path d="M352.106326,25.6675639 C352.106326,26.7584192 351.222142,27.6419919 350.131648,27.6419919 C349.041154,27.6419919 348.15747,26.7584192 348.15747,25.6675639 C348.15747,24.5767087 349.041154,23.6931359 350.131648,23.6931359 C351.222142,23.6931359 352.106326,24.5767087 352.106326,25.6675639" id="Fill-883" fill="#583AFF"></path>
                            <path d="M352.106326,48.7025572 C352.106326,49.7934124 351.222142,50.6769852 350.131648,50.6769852 C349.041154,50.6769852 348.15747,49.7934124 348.15747,48.7025572 C348.15747,47.6122014 349.041154,46.7281292 350.131648,46.7281292 C351.222142,46.7281292 352.106326,47.6122014 352.106326,48.7025572" id="Fill-885" fill="#583AFF"></path>
                            <path d="M352.106326,71.7375505 C352.106326,72.8279062 351.222142,73.7119785 350.131648,73.7119785 C349.041154,73.7119785 348.15747,72.8279062 348.15747,71.7375505 C348.15747,70.6466952 349.041154,69.7631225 350.131648,69.7631225 C351.222142,69.7631225 352.106326,70.6466952 352.106326,71.7375505" id="Fill-887" fill="#583AFF"></path>
                            <path d="M352.106326,94.7725437 C352.106326,95.863399 351.222142,96.7469717 350.131648,96.7469717 C349.041154,96.7469717 348.15747,95.863399 348.15747,94.7725437 C348.15747,93.6816885 349.041154,92.7981157 350.131648,92.7981157 C351.222142,92.7981157 352.106326,93.6816885 352.106326,94.7725437" id="Fill-889" fill="#583AFF"></path>
                            <path d="M352.106326,117.807537 C352.106326,118.898392 351.222142,119.781965 350.131648,119.781965 C349.041154,119.781965 348.15747,118.898392 348.15747,117.807537 C348.15747,116.717181 349.041154,115.833109 350.131648,115.833109 C351.222142,115.833109 352.106326,116.717181 352.106326,117.807537" id="Fill-891" fill="#583AFF"></path>
                            <path d="M352.106326,140.84253 C352.106326,141.932886 351.222142,142.816958 350.131648,142.816958 C349.041154,142.816958 348.15747,141.932886 348.15747,140.84253 C348.15747,139.751675 349.041154,138.868102 350.131648,138.868102 C351.222142,138.868102 352.106326,139.751675 352.106326,140.84253" id="Fill-893" fill="#583AFF"></path>
                            <path d="M352.106326,163.877524 C352.106326,164.967879 351.222142,165.851952 350.131648,165.851952 C349.041154,165.851952 348.15747,164.967879 348.15747,163.877524 C348.15747,162.786668 349.041154,161.903096 350.131648,161.903096 C351.222142,161.903096 352.106326,162.786668 352.106326,163.877524" id="Fill-895" fill="#583AFF"></path>
                            <path d="M352.106326,186.912517 C352.106326,188.003372 351.222142,188.886945 350.131648,188.886945 C349.041154,188.886945 348.15747,188.003372 348.15747,186.912517 C348.15747,185.821662 349.041154,184.938089 350.131648,184.938089 C351.222142,184.938089 352.106326,185.821662 352.106326,186.912517" id="Fill-897" fill="#583AFF"></path>
                            <path d="M352.106326,209.94751 C352.106326,211.038365 351.222142,211.921938 350.131648,211.921938 C349.041154,211.921938 348.15747,211.038365 348.15747,209.94751 C348.15747,208.857154 349.041154,207.973082 350.131648,207.973082 C351.222142,207.973082 352.106326,208.857154 352.106326,209.94751" id="Fill-899" fill="#583AFF"></path>
                            <path d="M352.106326,232.982503 C352.106326,234.072859 351.222142,234.956931 350.131648,234.956931 C349.041154,234.956931 348.15747,234.072859 348.15747,232.982503 C348.15747,231.891648 349.041154,231.008075 350.131648,231.008075 C351.222142,231.008075 352.106326,231.891648 352.106326,232.982503" id="Fill-901" fill="#583AFF"></path>
                            <path d="M352.106326,256.017497 C352.106326,257.108352 351.222142,257.991925 350.131648,257.991925 C349.041154,257.991925 348.15747,257.108352 348.15747,256.017497 C348.15747,254.926641 349.041154,254.043069 350.131648,254.043069 C351.222142,254.043069 352.106326,254.926641 352.106326,256.017497" id="Fill-903" fill="#583AFF"></path>
                            <path d="M352.106326,279.710633 C352.106326,280.801488 351.222142,281.685061 350.131648,281.685061 C349.041154,281.685061 348.15747,280.801488 348.15747,279.710633 C348.15747,278.620277 349.041154,277.736205 350.131648,277.736205 C351.222142,277.736205 352.106326,278.620277 352.106326,279.710633" id="Fill-905" fill="#583AFF"></path>
                            <path d="M352.106326,302.745626 C352.106326,303.835982 351.222142,304.720054 350.131648,304.720054 C349.041154,304.720054 348.15747,303.835982 348.15747,302.745626 C348.15747,301.654771 349.041154,300.771198 350.131648,300.771198 C351.222142,300.771198 352.106326,301.654771 352.106326,302.745626" id="Fill-907" fill="#583AFF"></path>
                            <path d="M352.106326,325.780619 C352.106326,326.871474 351.222142,327.755047 350.131648,327.755047 C349.041154,327.755047 348.15747,326.871474 348.15747,325.780619 C348.15747,324.689764 349.041154,323.806191 350.131648,323.806191 C351.222142,323.806191 352.106326,324.689764 352.106326,325.780619" id="Fill-909" fill="#583AFF"></path>
                            <path d="M352.106326,348.815612 C352.106326,349.906468 351.222142,350.79004 350.131648,350.79004 C349.041154,350.79004 348.15747,349.906468 348.15747,348.815612 C348.15747,347.725257 349.041154,346.841184 350.131648,346.841184 C351.222142,346.841184 352.106326,347.725257 352.106326,348.815612" id="Fill-911" fill="#583AFF"></path>
                            <path d="M352.106326,371.850356 C352.106326,372.941349 351.222142,373.825034 350.131648,373.825034 C349.041154,373.825034 348.15747,372.941349 348.15747,371.850356 C348.15747,370.759862 349.041154,369.876178 350.131648,369.876178 C351.222142,369.876178 352.106326,370.759862 352.106326,371.850356" id="Fill-913" fill="#583AFF"></path>
                            <path d="M352.106326,394.885599 C352.106326,395.975955 351.222142,396.860027 350.131648,396.860027 C349.041154,396.860027 348.15747,395.975955 348.15747,394.885599 C348.15747,393.794744 349.041154,392.911171 350.131648,392.911171 C351.222142,392.911171 352.106326,393.794744 352.106326,394.885599" id="Fill-915" fill="#583AFF"></path>
                            <path d="M352.106326,417.920592 C352.106326,419.011447 351.222142,419.89502 350.131648,419.89502 C349.041154,419.89502 348.15747,419.011447 348.15747,417.920592 C348.15747,416.829737 349.041154,415.946164 350.131648,415.946164 C351.222142,415.946164 352.106326,416.829737 352.106326,417.920592" id="Fill-917" fill="#583AFF"></path>
                            <path d="M369.876178,1.97442799 C369.876178,3.06478375 368.992105,3.94885599 367.90175,3.94885599 C366.811394,3.94885599 365.927322,3.06478375 365.927322,1.97442799 C365.927322,0.883572761 366.811394,0 367.90175,0 C368.992105,0 369.876178,0.883572761 369.876178,1.97442799" id="Fill-925" fill="#583AFF"></path>
                            <path d="M369.876178,25.6675639 C369.876178,26.7584192 368.992105,27.6419919 367.90175,27.6419919 C366.811394,27.6419919 365.927322,26.7584192 365.927322,25.6675639 C365.927322,24.5767087 366.811394,23.6931359 367.90175,23.6931359 C368.992105,23.6931359 369.876178,24.5767087 369.876178,25.6675639" id="Fill-927" fill="#583AFF"></path>
                            <path d="M369.876178,48.7025572 C369.876178,49.7934124 368.992105,50.6769852 367.90175,50.6769852 C366.811394,50.6769852 365.927322,49.7934124 365.927322,48.7025572 C365.927322,47.6122014 366.811394,46.7281292 367.90175,46.7281292 C368.992105,46.7281292 369.876178,47.6122014 369.876178,48.7025572" id="Fill-929" fill="#583AFF"></path>
                            <path d="M369.876178,71.7375505 C369.876178,72.8279062 368.992105,73.7119785 367.90175,73.7119785 C366.811394,73.7119785 365.927322,72.8279062 365.927322,71.7375505 C365.927322,70.6466952 366.811394,69.7631225 367.90175,69.7631225 C368.992105,69.7631225 369.876178,70.6466952 369.876178,71.7375505" id="Fill-931" fill="#583AFF"></path>
                            <path d="M369.876178,94.7725437 C369.876178,95.863399 368.992105,96.7469717 367.90175,96.7469717 C366.811394,96.7469717 365.927322,95.863399 365.927322,94.7725437 C365.927322,93.6816885 366.811394,92.7981157 367.90175,92.7981157 C368.992105,92.7981157 369.876178,93.6816885 369.876178,94.7725437" id="Fill-933" fill="#583AFF"></path>
                            <path d="M369.876178,117.807537 C369.876178,118.898392 368.992105,119.781965 367.90175,119.781965 C366.811394,119.781965 365.927322,118.898392 365.927322,117.807537 C365.927322,116.717181 366.811394,115.833109 367.90175,115.833109 C368.992105,115.833109 369.876178,116.717181 369.876178,117.807537" id="Fill-935" fill="#583AFF"></path>
                            <path d="M369.876178,140.84253 C369.876178,141.932886 368.992105,142.816958 367.90175,142.816958 C366.811394,142.816958 365.927322,141.932886 365.927322,140.84253 C365.927322,139.751675 366.811394,138.868102 367.90175,138.868102 C368.992105,138.868102 369.876178,139.751675 369.876178,140.84253" id="Fill-937" fill="#583AFF"></path>
                            <path d="M369.876178,163.877524 C369.876178,164.967879 368.992105,165.851952 367.90175,165.851952 C366.811394,165.851952 365.927322,164.967879 365.927322,163.877524 C365.927322,162.786668 366.811394,161.903096 367.90175,161.903096 C368.992105,161.903096 369.876178,162.786668 369.876178,163.877524" id="Fill-939" fill="#583AFF"></path>
                            <path d="M369.876178,186.912517 C369.876178,188.003372 368.992105,188.886945 367.90175,188.886945 C366.811394,188.886945 365.927322,188.003372 365.927322,186.912517 C365.927322,185.821662 366.811394,184.938089 367.90175,184.938089 C368.992105,184.938089 369.876178,185.821662 369.876178,186.912517" id="Fill-941" fill="#583AFF"></path>
                            <path d="M369.876178,209.94751 C369.876178,211.038365 368.992105,211.921938 367.90175,211.921938 C366.811394,211.921938 365.927322,211.038365 365.927322,209.94751 C365.927322,208.857154 366.811394,207.973082 367.90175,207.973082 C368.992105,207.973082 369.876178,208.857154 369.876178,209.94751" id="Fill-943" fill="#583AFF"></path>
                            <path d="M369.876178,232.982503 C369.876178,234.072859 368.992105,234.956931 367.90175,234.956931 C366.811394,234.956931 365.927322,234.072859 365.927322,232.982503 C365.927322,231.891648 366.811394,231.008075 367.90175,231.008075 C368.992105,231.008075 369.876178,231.891648 369.876178,232.982503" id="Fill-945" fill="#583AFF"></path>
                            <path d="M369.876178,256.017497 C369.876178,257.108352 368.992105,257.991925 367.90175,257.991925 C366.811394,257.991925 365.927322,257.108352 365.927322,256.017497 C365.927322,254.926641 366.811394,254.043069 367.90175,254.043069 C368.992105,254.043069 369.876178,254.926641 369.876178,256.017497" id="Fill-947" fill="#583AFF"></path>
                            <path d="M369.876178,279.710633 C369.876178,280.801488 368.992105,281.685061 367.90175,281.685061 C366.811394,281.685061 365.927322,280.801488 365.927322,279.710633 C365.927322,278.620277 366.811394,277.736205 367.90175,277.736205 C368.992105,277.736205 369.876178,278.620277 369.876178,279.710633" id="Fill-949" fill="#583AFF"></path>
                            <path d="M369.876178,302.745626 C369.876178,303.835982 368.992105,304.720054 367.90175,304.720054 C366.811394,304.720054 365.927322,303.835982 365.927322,302.745626 C365.927322,301.654771 366.811394,300.771198 367.90175,300.771198 C368.992105,300.771198 369.876178,301.654771 369.876178,302.745626" id="Fill-951" fill="#583AFF"></path>
                            <path d="M369.876178,325.780619 C369.876178,326.871474 368.992105,327.755047 367.90175,327.755047 C366.811394,327.755047 365.927322,326.871474 365.927322,325.780619 C365.927322,324.689764 366.811394,323.806191 367.90175,323.806191 C368.992105,323.806191 369.876178,324.689764 369.876178,325.780619" id="Fill-953" fill="#583AFF"></path>
                            <path d="M369.876178,348.815612 C369.876178,349.906468 368.992105,350.79004 367.90175,350.79004 C366.811394,350.79004 365.927322,349.906468 365.927322,348.815612 C365.927322,347.725257 366.811394,346.841184 367.90175,346.841184 C368.992105,346.841184 369.876178,347.725257 369.876178,348.815612" id="Fill-955" fill="#583AFF"></path>
                            <path d="M369.876178,371.850356 C369.876178,372.941349 368.992105,373.825034 367.90175,373.825034 C366.811394,373.825034 365.927322,372.941349 365.927322,371.850356 C365.927322,370.759862 366.811394,369.876178 367.90175,369.876178 C368.992105,369.876178 369.876178,370.759862 369.876178,371.850356" id="Fill-957" fill="#583AFF"></path>
                            <path d="M369.876178,394.885599 C369.876178,395.975955 368.992105,396.860027 367.90175,396.860027 C366.811394,396.860027 365.927322,395.975955 365.927322,394.885599 C365.927322,393.794744 366.811394,392.911171 367.90175,392.911171 C368.992105,392.911171 369.876178,393.794744 369.876178,394.885599" id="Fill-959" fill="#583AFF"></path>
                            <path d="M369.876178,417.920592 C369.876178,419.011447 368.992105,419.89502 367.90175,419.89502 C366.811394,419.89502 365.927322,419.011447 365.927322,417.920592 C365.927322,416.829737 366.811394,415.946164 367.90175,415.946164 C368.992105,415.946164 369.876178,416.829737 369.876178,417.920592" id="Fill-961" fill="#583AFF"></path>
                            <path d="M386.987887,1.97442799 C386.987887,3.06478375 386.103815,3.94885599 385.013459,3.94885599 C383.923103,3.94885599 383.039031,3.06478375 383.039031,1.97442799 C383.039031,0.883572761 383.923103,0 385.013459,0 C386.103815,0 386.987887,0.883572761 386.987887,1.97442799" id="Fill-969" fill="#583AFF"></path>
                            <path d="M386.987887,25.6675639 C386.987887,26.7584192 386.103815,27.6419919 385.013459,27.6419919 C383.923103,27.6419919 383.039031,26.7584192 383.039031,25.6675639 C383.039031,24.5767087 383.923103,23.6931359 385.013459,23.6931359 C386.103815,23.6931359 386.987887,24.5767087 386.987887,25.6675639" id="Fill-971" fill="#583AFF"></path>
                            <path d="M386.987887,48.7025572 C386.987887,49.7934124 386.103815,50.6769852 385.013459,50.6769852 C383.923103,50.6769852 383.039031,49.7934124 383.039031,48.7025572 C383.039031,47.6122014 383.923103,46.7281292 385.013459,46.7281292 C386.103815,46.7281292 386.987887,47.6122014 386.987887,48.7025572" id="Fill-973" fill="#583AFF"></path>
                            <path d="M386.987887,71.7375505 C386.987887,72.8279062 386.103815,73.7119785 385.013459,73.7119785 C383.923103,73.7119785 383.039031,72.8279062 383.039031,71.7375505 C383.039031,70.6466952 383.923103,69.7631225 385.013459,69.7631225 C386.103815,69.7631225 386.987887,70.6466952 386.987887,71.7375505" id="Fill-975" fill="#583AFF"></path>
                            <path d="M386.987887,94.7725437 C386.987887,95.863399 386.103815,96.7469717 385.013459,96.7469717 C383.923103,96.7469717 383.039031,95.863399 383.039031,94.7725437 C383.039031,93.6816885 383.923103,92.7981157 385.013459,92.7981157 C386.103815,92.7981157 386.987887,93.6816885 386.987887,94.7725437" id="Fill-977" fill="#583AFF"></path>
                            <path d="M386.987887,117.807537 C386.987887,118.898392 386.103815,119.781965 385.013459,119.781965 C383.923103,119.781965 383.039031,118.898392 383.039031,117.807537 C383.039031,116.717181 383.923103,115.833109 385.013459,115.833109 C386.103815,115.833109 386.987887,116.717181 386.987887,117.807537" id="Fill-979" fill="#583AFF"></path>
                            <path d="M386.987887,140.84253 C386.987887,141.932886 386.103815,142.816958 385.013459,142.816958 C383.923103,142.816958 383.039031,141.932886 383.039031,140.84253 C383.039031,139.751675 383.923103,138.868102 385.013459,138.868102 C386.103815,138.868102 386.987887,139.751675 386.987887,140.84253" id="Fill-981" fill="#583AFF"></path>
                            <path d="M386.987887,163.877524 C386.987887,164.967879 386.103815,165.851952 385.013459,165.851952 C383.923103,165.851952 383.039031,164.967879 383.039031,163.877524 C383.039031,162.786668 383.923103,161.903096 385.013459,161.903096 C386.103815,161.903096 386.987887,162.786668 386.987887,163.877524" id="Fill-983" fill="#583AFF"></path>
                            <path d="M386.987887,186.912517 C386.987887,188.003372 386.103815,188.886945 385.013459,188.886945 C383.923103,188.886945 383.039031,188.003372 383.039031,186.912517 C383.039031,185.821662 383.923103,184.938089 385.013459,184.938089 C386.103815,184.938089 386.987887,185.821662 386.987887,186.912517" id="Fill-985" fill="#583AFF"></path>
                            <path d="M386.987887,209.94751 C386.987887,211.038365 386.103815,211.921938 385.013459,211.921938 C383.923103,211.921938 383.039031,211.038365 383.039031,209.94751 C383.039031,208.857154 383.923103,207.973082 385.013459,207.973082 C386.103815,207.973082 386.987887,208.857154 386.987887,209.94751" id="Fill-987" fill="#583AFF"></path>
                            <path d="M386.987887,232.982503 C386.987887,234.072859 386.103815,234.956931 385.013459,234.956931 C383.923103,234.956931 383.039031,234.072859 383.039031,232.982503 C383.039031,231.891648 383.923103,231.008075 385.013459,231.008075 C386.103815,231.008075 386.987887,231.891648 386.987887,232.982503" id="Fill-989" fill="#583AFF"></path>
                            <path d="M386.987887,256.017497 C386.987887,257.108352 386.103815,257.991925 385.013459,257.991925 C383.923103,257.991925 383.039031,257.108352 383.039031,256.017497 C383.039031,254.926641 383.923103,254.043069 385.013459,254.043069 C386.103815,254.043069 386.987887,254.926641 386.987887,256.017497" id="Fill-991" fill="#583AFF"></path>
                            <path d="M386.987887,279.710633 C386.987887,280.801488 386.103815,281.685061 385.013459,281.685061 C383.923103,281.685061 383.039031,280.801488 383.039031,279.710633 C383.039031,278.620277 383.923103,277.736205 385.013459,277.736205 C386.103815,277.736205 386.987887,278.620277 386.987887,279.710633" id="Fill-993" fill="#583AFF"></path>
                            <path d="M386.987887,302.745626 C386.987887,303.835982 386.103815,304.720054 385.013459,304.720054 C383.923103,304.720054 383.039031,303.835982 383.039031,302.745626 C383.039031,301.654771 383.923103,300.771198 385.013459,300.771198 C386.103815,300.771198 386.987887,301.654771 386.987887,302.745626" id="Fill-995" fill="#583AFF"></path>
                            <path d="M386.987887,325.780619 C386.987887,326.871474 386.103815,327.755047 385.013459,327.755047 C383.923103,327.755047 383.039031,326.871474 383.039031,325.780619 C383.039031,324.689764 383.923103,323.806191 385.013459,323.806191 C386.103815,323.806191 386.987887,324.689764 386.987887,325.780619" id="Fill-997" fill="#583AFF"></path>
                            <path d="M386.987887,348.815612 C386.987887,349.906468 386.103815,350.79004 385.013459,350.79004 C383.923103,350.79004 383.039031,349.906468 383.039031,348.815612 C383.039031,347.725257 383.923103,346.841184 385.013459,346.841184 C386.103815,346.841184 386.987887,347.725257 386.987887,348.815612" id="Fill-999" fill="#583AFF"></path>
                            <path d="M386.987887,371.850356 C386.987887,372.941349 386.103815,373.825034 385.013459,373.825034 C383.923103,373.825034 383.039031,372.941349 383.039031,371.850356 C383.039031,370.759862 383.923103,369.876178 385.013459,369.876178 C386.103815,369.876178 386.987887,370.759862 386.987887,371.850356" id="Fill-1001" fill="#583AFF"></path>
                            <path d="M386.987887,394.885599 C386.987887,395.975955 386.103815,396.860027 385.013459,396.860027 C383.923103,396.860027 383.039031,395.975955 383.039031,394.885599 C383.039031,393.794744 383.923103,392.911171 385.013459,392.911171 C386.103815,392.911171 386.987887,393.794744 386.987887,394.885599" id="Fill-1003" fill="#583AFF"></path>
                            <path d="M386.987887,417.920592 C386.987887,419.011447 386.103815,419.89502 385.013459,419.89502 C383.923103,419.89502 383.039031,419.011447 383.039031,417.920592 C383.039031,416.829737 383.923103,415.946164 385.013459,415.946164 C386.103815,415.946164 386.987887,416.829737 386.987887,417.920592" id="Fill-1005" fill="#583AFF"></path>
                            <path d="M404.757739,1.97442799 C404.757739,3.06478375 403.873667,3.94885599 402.783311,3.94885599 C401.692456,3.94885599 400.808883,3.06478375 400.808883,1.97442799 C400.808883,0.883572761 401.692456,0 402.783311,0 C403.873667,0 404.757739,0.883572761 404.757739,1.97442799" id="Fill-1013" fill="#583AFF"></path>
                            <path d="M404.757739,25.6675639 C404.757739,26.7584192 403.873667,27.6419919 402.783311,27.6419919 C401.692456,27.6419919 400.808883,26.7584192 400.808883,25.6675639 C400.808883,24.5767087 401.692456,23.6931359 402.783311,23.6931359 C403.873667,23.6931359 404.757739,24.5767087 404.757739,25.6675639" id="Fill-1015" fill="#583AFF"></path>
                            <path d="M404.757739,48.7025572 C404.757739,49.7934124 403.873667,50.6769852 402.783311,50.6769852 C401.692456,50.6769852 400.808883,49.7934124 400.808883,48.7025572 C400.808883,47.6122014 401.692456,46.7281292 402.783311,46.7281292 C403.873667,46.7281292 404.757739,47.6122014 404.757739,48.7025572" id="Fill-1017" fill="#583AFF"></path>
                            <path d="M404.757739,71.7375505 C404.757739,72.8279062 403.873667,73.7119785 402.783311,73.7119785 C401.692456,73.7119785 400.808883,72.8279062 400.808883,71.7375505 C400.808883,70.6466952 401.692456,69.7631225 402.783311,69.7631225 C403.873667,69.7631225 404.757739,70.6466952 404.757739,71.7375505" id="Fill-1019" fill="#583AFF"></path>
                            <path d="M404.757739,94.7725437 C404.757739,95.863399 403.873667,96.7469717 402.783311,96.7469717 C401.692456,96.7469717 400.808883,95.863399 400.808883,94.7725437 C400.808883,93.6816885 401.692456,92.7981157 402.783311,92.7981157 C403.873667,92.7981157 404.757739,93.6816885 404.757739,94.7725437" id="Fill-1021" fill="#583AFF"></path>
                            <path d="M404.757739,117.807537 C404.757739,118.898392 403.873667,119.781965 402.783311,119.781965 C401.692456,119.781965 400.808883,118.898392 400.808883,117.807537 C400.808883,116.717181 401.692456,115.833109 402.783311,115.833109 C403.873667,115.833109 404.757739,116.717181 404.757739,117.807537" id="Fill-1023" fill="#583AFF"></path>
                            <path d="M404.757739,140.84253 C404.757739,141.932886 403.873667,142.816958 402.783311,142.816958 C401.692456,142.816958 400.808883,141.932886 400.808883,140.84253 C400.808883,139.751675 401.692456,138.868102 402.783311,138.868102 C403.873667,138.868102 404.757739,139.751675 404.757739,140.84253" id="Fill-1025" fill="#583AFF"></path>
                            <path d="M404.757739,163.877524 C404.757739,164.967879 403.873667,165.851952 402.783311,165.851952 C401.692456,165.851952 400.808883,164.967879 400.808883,163.877524 C400.808883,162.786668 401.692456,161.903096 402.783311,161.903096 C403.873667,161.903096 404.757739,162.786668 404.757739,163.877524" id="Fill-1027" fill="#583AFF"></path>
                            <path d="M404.757739,186.912517 C404.757739,188.003372 403.873667,188.886945 402.783311,188.886945 C401.692456,188.886945 400.808883,188.003372 400.808883,186.912517 C400.808883,185.821662 401.692456,184.938089 402.783311,184.938089 C403.873667,184.938089 404.757739,185.821662 404.757739,186.912517" id="Fill-1029" fill="#583AFF"></path>
                            <path d="M404.757739,209.94751 C404.757739,211.038365 403.873667,211.921938 402.783311,211.921938 C401.692456,211.921938 400.808883,211.038365 400.808883,209.94751 C400.808883,208.857154 401.692456,207.973082 402.783311,207.973082 C403.873667,207.973082 404.757739,208.857154 404.757739,209.94751" id="Fill-1031" fill="#583AFF"></path>
                            <path d="M404.757739,232.982503 C404.757739,234.072859 403.873667,234.956931 402.783311,234.956931 C401.692456,234.956931 400.808883,234.072859 400.808883,232.982503 C400.808883,231.891648 401.692456,231.008075 402.783311,231.008075 C403.873667,231.008075 404.757739,231.891648 404.757739,232.982503" id="Fill-1033" fill="#583AFF"></path>
                            <path d="M404.757739,256.017497 C404.757739,257.108352 403.873667,257.991925 402.783311,257.991925 C401.692456,257.991925 400.808883,257.108352 400.808883,256.017497 C400.808883,254.926641 401.692456,254.043069 402.783311,254.043069 C403.873667,254.043069 404.757739,254.926641 404.757739,256.017497" id="Fill-1035" fill="#583AFF"></path>
                            <path d="M404.757739,279.710633 C404.757739,280.801488 403.873667,281.685061 402.783311,281.685061 C401.692456,281.685061 400.808883,280.801488 400.808883,279.710633 C400.808883,278.620277 401.692456,277.736205 402.783311,277.736205 C403.873667,277.736205 404.757739,278.620277 404.757739,279.710633" id="Fill-1037" fill="#583AFF"></path>
                            <path d="M404.757739,302.745626 C404.757739,303.835982 403.873667,304.720054 402.783311,304.720054 C401.692456,304.720054 400.808883,303.835982 400.808883,302.745626 C400.808883,301.654771 401.692456,300.771198 402.783311,300.771198 C403.873667,300.771198 404.757739,301.654771 404.757739,302.745626" id="Fill-1039" fill="#583AFF"></path>
                            <path d="M404.757739,325.780619 C404.757739,326.871474 403.873667,327.755047 402.783311,327.755047 C401.692456,327.755047 400.808883,326.871474 400.808883,325.780619 C400.808883,324.689764 401.692456,323.806191 402.783311,323.806191 C403.873667,323.806191 404.757739,324.689764 404.757739,325.780619" id="Fill-1041" fill="#583AFF"></path>
                            <path d="M404.757739,348.815612 C404.757739,349.906468 403.873667,350.79004 402.783311,350.79004 C401.692456,350.79004 400.808883,349.906468 400.808883,348.815612 C400.808883,347.725257 401.692456,346.841184 402.783311,346.841184 C403.873667,346.841184 404.757739,347.725257 404.757739,348.815612" id="Fill-1043" fill="#583AFF"></path>
                            <path d="M404.757739,371.850356 C404.757739,372.941349 403.873667,373.825034 402.783311,373.825034 C401.692456,373.825034 400.808883,372.941349 400.808883,371.850356 C400.808883,370.759862 401.692456,369.876178 402.783311,369.876178 C403.873667,369.876178 404.757739,370.759862 404.757739,371.850356" id="Fill-1045" fill="#583AFF"></path>
                            <path d="M404.757739,394.885599 C404.757739,395.975955 403.873667,396.860027 402.783311,396.860027 C401.692456,396.860027 400.808883,395.975955 400.808883,394.885599 C400.808883,393.794744 401.692456,392.911171 402.783311,392.911171 C403.873667,392.911171 404.757739,393.794744 404.757739,394.885599" id="Fill-1047" fill="#583AFF"></path>
                            <path d="M404.757739,417.920592 C404.757739,419.011447 403.873667,419.89502 402.783311,419.89502 C401.692456,419.89502 400.808883,419.011447 400.808883,417.920592 C400.808883,416.829737 401.692456,415.946164 402.783311,415.946164 C403.873667,415.946164 404.757739,416.829737 404.757739,417.920592" id="Fill-1049" fill="#583AFF"></path>
                            <path d="M421.869448,1.97442799 C421.869448,3.06478375 420.985376,3.94885599 419.89502,3.94885599 C418.804165,3.94885599 417.920592,3.06478375 417.920592,1.97442799 C417.920592,0.883572761 418.804165,0 419.89502,0 C420.985376,0 421.869448,0.883572761 421.869448,1.97442799" id="Fill-1057" fill="#583AFF"></path>
                            <path d="M421.869448,25.6675639 C421.869448,26.7584192 420.985376,27.6419919 419.89502,27.6419919 C418.804165,27.6419919 417.920592,26.7584192 417.920592,25.6675639 C417.920592,24.5767087 418.804165,23.6931359 419.89502,23.6931359 C420.985376,23.6931359 421.869448,24.5767087 421.869448,25.6675639" id="Fill-1059" fill="#583AFF"></path>
                            <path d="M421.869448,48.7025572 C421.869448,49.7934124 420.985376,50.6769852 419.89502,50.6769852 C418.804165,50.6769852 417.920592,49.7934124 417.920592,48.7025572 C417.920592,47.6122014 418.804165,46.7281292 419.89502,46.7281292 C420.985376,46.7281292 421.869448,47.6122014 421.869448,48.7025572" id="Fill-1061" fill="#583AFF"></path>
                            <path d="M421.869448,71.7375505 C421.869448,72.8279062 420.985376,73.7119785 419.89502,73.7119785 C418.804165,73.7119785 417.920592,72.8279062 417.920592,71.7375505 C417.920592,70.6466952 418.804165,69.7631225 419.89502,69.7631225 C420.985376,69.7631225 421.869448,70.6466952 421.869448,71.7375505" id="Fill-1063" fill="#583AFF"></path>
                            <path d="M421.869448,94.7725437 C421.869448,95.863399 420.985376,96.7469717 419.89502,96.7469717 C418.804165,96.7469717 417.920592,95.863399 417.920592,94.7725437 C417.920592,93.6816885 418.804165,92.7981157 419.89502,92.7981157 C420.985376,92.7981157 421.869448,93.6816885 421.869448,94.7725437" id="Fill-1065" fill="#583AFF"></path>
                            <path d="M421.869448,117.807537 C421.869448,118.898392 420.985376,119.781965 419.89502,119.781965 C418.804165,119.781965 417.920592,118.898392 417.920592,117.807537 C417.920592,116.717181 418.804165,115.833109 419.89502,115.833109 C420.985376,115.833109 421.869448,116.717181 421.869448,117.807537" id="Fill-1067" fill="#583AFF"></path>
                            <path d="M421.869448,140.84253 C421.869448,141.932886 420.985376,142.816958 419.89502,142.816958 C418.804165,142.816958 417.920592,141.932886 417.920592,140.84253 C417.920592,139.751675 418.804165,138.868102 419.89502,138.868102 C420.985376,138.868102 421.869448,139.751675 421.869448,140.84253" id="Fill-1069" fill="#583AFF"></path>
                            <path d="M421.869448,163.877524 C421.869448,164.967879 420.985376,165.851952 419.89502,165.851952 C418.804165,165.851952 417.920592,164.967879 417.920592,163.877524 C417.920592,162.786668 418.804165,161.903096 419.89502,161.903096 C420.985376,161.903096 421.869448,162.786668 421.869448,163.877524" id="Fill-1071" fill="#583AFF"></path>
                            <path d="M421.869448,186.912517 C421.869448,188.003372 420.985376,188.886945 419.89502,188.886945 C418.804165,188.886945 417.920592,188.003372 417.920592,186.912517 C417.920592,185.821662 418.804165,184.938089 419.89502,184.938089 C420.985376,184.938089 421.869448,185.821662 421.869448,186.912517" id="Fill-1073" fill="#583AFF"></path>
                            <path d="M421.869448,209.94751 C421.869448,211.038365 420.985376,211.921938 419.89502,211.921938 C418.804165,211.921938 417.920592,211.038365 417.920592,209.94751 C417.920592,208.857154 418.804165,207.973082 419.89502,207.973082 C420.985376,207.973082 421.869448,208.857154 421.869448,209.94751" id="Fill-1075" fill="#583AFF"></path>
                            <path d="M421.869448,232.982503 C421.869448,234.072859 420.985376,234.956931 419.89502,234.956931 C418.804165,234.956931 417.920592,234.072859 417.920592,232.982503 C417.920592,231.891648 418.804165,231.008075 419.89502,231.008075 C420.985376,231.008075 421.869448,231.891648 421.869448,232.982503" id="Fill-1077" fill="#583AFF"></path>
                            <path d="M421.869448,256.017497 C421.869448,257.108352 420.985376,257.991925 419.89502,257.991925 C418.804165,257.991925 417.920592,257.108352 417.920592,256.017497 C417.920592,254.926641 418.804165,254.043069 419.89502,254.043069 C420.985376,254.043069 421.869448,254.926641 421.869448,256.017497" id="Fill-1079" fill="#583AFF"></path>
                            <path d="M421.869448,279.710633 C421.869448,280.801488 420.985376,281.685061 419.89502,281.685061 C418.804165,281.685061 417.920592,280.801488 417.920592,279.710633 C417.920592,278.620277 418.804165,277.736205 419.89502,277.736205 C420.985376,277.736205 421.869448,278.620277 421.869448,279.710633" id="Fill-1081" fill="#583AFF"></path>
                            <path d="M421.869448,302.745626 C421.869448,303.835982 420.985376,304.720054 419.89502,304.720054 C418.804165,304.720054 417.920592,303.835982 417.920592,302.745626 C417.920592,301.654771 418.804165,300.771198 419.89502,300.771198 C420.985376,300.771198 421.869448,301.654771 421.869448,302.745626" id="Fill-1083" fill="#583AFF"></path>
                            <path d="M421.869448,325.780619 C421.869448,326.871474 420.985376,327.755047 419.89502,327.755047 C418.804165,327.755047 417.920592,326.871474 417.920592,325.780619 C417.920592,324.689764 418.804165,323.806191 419.89502,323.806191 C420.985376,323.806191 421.869448,324.689764 421.869448,325.780619" id="Fill-1085" fill="#583AFF"></path>
                            <path d="M421.869448,348.815612 C421.869448,349.906468 420.985376,350.79004 419.89502,350.79004 C418.804165,350.79004 417.920592,349.906468 417.920592,348.815612 C417.920592,347.725257 418.804165,346.841184 419.89502,346.841184 C420.985376,346.841184 421.869448,347.725257 421.869448,348.815612" id="Fill-1087" fill="#583AFF"></path>
                            <path d="M421.869448,371.850356 C421.869448,372.941349 420.985376,373.825034 419.89502,373.825034 C418.804165,373.825034 417.920592,372.941349 417.920592,371.850356 C417.920592,370.759862 418.804165,369.876178 419.89502,369.876178 C420.985376,369.876178 421.869448,370.759862 421.869448,371.850356" id="Fill-1089" fill="#583AFF"></path>
                            <path d="M421.869448,394.885599 C421.869448,395.975955 420.985376,396.860027 419.89502,396.860027 C418.804165,396.860027 417.920592,395.975955 417.920592,394.885599 C417.920592,393.794744 418.804165,392.911171 419.89502,392.911171 C420.985376,392.911171 421.869448,393.794744 421.869448,394.885599" id="Fill-1091" fill="#583AFF"></path>
                            <path d="M421.869448,417.920592 C421.869448,419.011447 420.985376,419.89502 419.89502,419.89502 C418.804165,419.89502 417.920592,419.011447 417.920592,417.920592 C417.920592,416.829737 418.804165,415.946164 419.89502,415.946164 C420.985376,415.946164 421.869448,416.829737 421.869448,417.920592" id="Fill-1093" fill="#583AFF"></path>
                            <path d="M439.6393,1.97442799 C439.6393,3.06478375 438.754728,3.94885599 437.664872,3.94885599 C436.574017,3.94885599 435.690444,3.06478375 435.690444,1.97442799 C435.690444,0.883572761 436.574017,0 437.664872,0 C438.754728,0 439.6393,0.883572761 439.6393,1.97442799" id="Fill-1101" fill="#583AFF"></path>
                            <path d="M439.6393,25.6675639 C439.6393,26.7584192 438.754728,27.6419919 437.664872,27.6419919 C436.574017,27.6419919 435.690444,26.7584192 435.690444,25.6675639 C435.690444,24.5767087 436.574017,23.6931359 437.664872,23.6931359 C438.754728,23.6931359 439.6393,24.5767087 439.6393,25.6675639" id="Fill-1103" fill="#583AFF"></path>
                            <path d="M439.6393,48.7025572 C439.6393,49.7934124 438.754728,50.6769852 437.664872,50.6769852 C436.574017,50.6769852 435.690444,49.7934124 435.690444,48.7025572 C435.690444,47.6122014 436.574017,46.7281292 437.664872,46.7281292 C438.754728,46.7281292 439.6393,47.6122014 439.6393,48.7025572" id="Fill-1105" fill="#583AFF"></path>
                            <path d="M439.6393,71.7375505 C439.6393,72.8279062 438.754728,73.7119785 437.664872,73.7119785 C436.574017,73.7119785 435.690444,72.8279062 435.690444,71.7375505 C435.690444,70.6466952 436.574017,69.7631225 437.664872,69.7631225 C438.754728,69.7631225 439.6393,70.6466952 439.6393,71.7375505" id="Fill-1107" fill="#583AFF"></path>
                            <path d="M439.6393,94.7725437 C439.6393,95.863399 438.754728,96.7469717 437.664872,96.7469717 C436.574017,96.7469717 435.690444,95.863399 435.690444,94.7725437 C435.690444,93.6816885 436.574017,92.7981157 437.664872,92.7981157 C438.754728,92.7981157 439.6393,93.6816885 439.6393,94.7725437" id="Fill-1109" fill="#583AFF"></path>
                            <path d="M439.6393,117.807537 C439.6393,118.898392 438.754728,119.781965 437.664872,119.781965 C436.574017,119.781965 435.690444,118.898392 435.690444,117.807537 C435.690444,116.717181 436.574017,115.833109 437.664872,115.833109 C438.754728,115.833109 439.6393,116.717181 439.6393,117.807537" id="Fill-1111" fill="#583AFF"></path>
                            <path d="M439.6393,140.84253 C439.6393,141.932886 438.754728,142.816958 437.664872,142.816958 C436.574017,142.816958 435.690444,141.932886 435.690444,140.84253 C435.690444,139.751675 436.574017,138.868102 437.664872,138.868102 C438.754728,138.868102 439.6393,139.751675 439.6393,140.84253" id="Fill-1113" fill="#583AFF"></path>
                            <path d="M439.6393,163.877524 C439.6393,164.967879 438.754728,165.851952 437.664872,165.851952 C436.574017,165.851952 435.690444,164.967879 435.690444,163.877524 C435.690444,162.786668 436.574017,161.903096 437.664872,161.903096 C438.754728,161.903096 439.6393,162.786668 439.6393,163.877524" id="Fill-1115" fill="#583AFF"></path>
                            <path d="M439.6393,186.912517 C439.6393,188.003372 438.754728,188.886945 437.664872,188.886945 C436.574017,188.886945 435.690444,188.003372 435.690444,186.912517 C435.690444,185.821662 436.574017,184.938089 437.664872,184.938089 C438.754728,184.938089 439.6393,185.821662 439.6393,186.912517" id="Fill-1117" fill="#583AFF"></path>
                            <path d="M439.6393,209.94751 C439.6393,211.038365 438.754728,211.921938 437.664872,211.921938 C436.574017,211.921938 435.690444,211.038365 435.690444,209.94751 C435.690444,208.857154 436.574017,207.973082 437.664872,207.973082 C438.754728,207.973082 439.6393,208.857154 439.6393,209.94751" id="Fill-1119" fill="#583AFF"></path>
                            <path d="M439.6393,232.982503 C439.6393,234.072859 438.754728,234.956931 437.664872,234.956931 C436.574017,234.956931 435.690444,234.072859 435.690444,232.982503 C435.690444,231.891648 436.574017,231.008075 437.664872,231.008075 C438.754728,231.008075 439.6393,231.891648 439.6393,232.982503" id="Fill-1121" fill="#583AFF"></path>
                            <path d="M439.6393,256.017497 C439.6393,257.108352 438.754728,257.991925 437.664872,257.991925 C436.574017,257.991925 435.690444,257.108352 435.690444,256.017497 C435.690444,254.926641 436.574017,254.043069 437.664872,254.043069 C438.754728,254.043069 439.6393,254.926641 439.6393,256.017497" id="Fill-1123" fill="#583AFF"></path>
                            <path d="M439.6393,279.710633 C439.6393,280.801488 438.754728,281.685061 437.664872,281.685061 C436.574017,281.685061 435.690444,280.801488 435.690444,279.710633 C435.690444,278.620277 436.574017,277.736205 437.664872,277.736205 C438.754728,277.736205 439.6393,278.620277 439.6393,279.710633" id="Fill-1125" fill="#583AFF"></path>
                            <path d="M439.6393,302.745626 C439.6393,303.835982 438.754728,304.720054 437.664872,304.720054 C436.574017,304.720054 435.690444,303.835982 435.690444,302.745626 C435.690444,301.654771 436.574017,300.771198 437.664872,300.771198 C438.754728,300.771198 439.6393,301.654771 439.6393,302.745626" id="Fill-1127" fill="#583AFF"></path>
                            <path d="M439.6393,325.780619 C439.6393,326.871474 438.754728,327.755047 437.664872,327.755047 C436.574017,327.755047 435.690444,326.871474 435.690444,325.780619 C435.690444,324.689764 436.574017,323.806191 437.664872,323.806191 C438.754728,323.806191 439.6393,324.689764 439.6393,325.780619" id="Fill-1129" fill="#583AFF"></path>
                            <path d="M439.6393,348.815612 C439.6393,349.906468 438.754728,350.79004 437.664872,350.79004 C436.574017,350.79004 435.690444,349.906468 435.690444,348.815612 C435.690444,347.725257 436.574017,346.841184 437.664872,346.841184 C438.754728,346.841184 439.6393,347.725257 439.6393,348.815612" id="Fill-1131" fill="#583AFF"></path>
                            <path d="M439.6393,371.850356 C439.6393,372.941349 438.754728,373.825034 437.664872,373.825034 C436.574017,373.825034 435.690444,372.941349 435.690444,371.850356 C435.690444,370.759862 436.574017,369.876178 437.664872,369.876178 C438.754728,369.876178 439.6393,370.759862 439.6393,371.850356" id="Fill-1133" fill="#583AFF"></path>
                            <path d="M439.6393,394.885599 C439.6393,395.975955 438.754728,396.860027 437.664872,396.860027 C436.574017,396.860027 435.690444,395.975955 435.690444,394.885599 C435.690444,393.794744 436.574017,392.911171 437.664872,392.911171 C438.754728,392.911171 439.6393,393.794744 439.6393,394.885599" id="Fill-1135" fill="#583AFF"></path>
                            <path d="M439.6393,417.920592 C439.6393,419.011447 438.754728,419.89502 437.664872,419.89502 C436.574017,419.89502 435.690444,419.011447 435.690444,417.920592 C435.690444,416.829737 436.574017,415.946164 437.664872,415.946164 C438.754728,415.946164 439.6393,416.829737 439.6393,417.920592" id="Fill-1137" fill="#583AFF"></path>
                            <g id="Group-1147" stroke-width="1" fill="none" transform="translate(452.802153, 0.000000)">
                                <mask id="mask-4" fill="white">
                                    <use xlink:href="#path-3"></use>
                                </mask>
                                <g id="Clip-1146"></g>
                                <path d="M3.94890594,1.97442799 C3.94890594,3.06478375 3.06432304,3.94885599 1.97445297,3.94885599 C0.883583937,3.94885599 0,3.06478375 0,1.97442799 C0,0.883572761 0.883583937,0 1.97445297,0 C3.06432304,0 3.94890594,0.883572761 3.94890594,1.97442799" id="Fill-1145" fill="#583AFF" mask="url(#mask-4)"></path>
                            </g>
                            <g id="Group-1150" stroke-width="1" fill="none" transform="translate(452.802153, 23.693136)">
                                <mask id="mask-6" fill="white">
                                    <use xlink:href="#path-5"></use>
                                </mask>
                                <g id="Clip-1149"></g>
                                <path d="M3.94890594,1.97442799 C3.94890594,3.06528323 3.06432304,3.94885599 1.97445297,3.94885599 C0.883583937,3.94885599 0,3.06528323 0,1.97442799 C0,0.883572761 0.883583937,0 1.97445297,0 C3.06432304,0 3.94890594,0.883572761 3.94890594,1.97442799" id="Fill-1148" fill="#583AFF" mask="url(#mask-6)"></path>
                            </g>
                            <g id="Group-1153" stroke-width="1" fill="none" transform="translate(452.802153, 46.728129)">
                                <mask id="mask-8" fill="white">
                                    <use xlink:href="#path-7"></use>
                                </mask>
                                <g id="Clip-1152"></g>
                                <path d="M3.94890594,1.97442799 C3.94890594,3.06528323 3.06432304,3.94885599 1.97445297,3.94885599 C0.883583937,3.94885599 0,3.06528323 0,1.97442799 C0,0.884072236 0.883583937,0 1.97445297,0 C3.06432304,0 3.94890594,0.884072236 3.94890594,1.97442799" id="Fill-1151" fill="#583AFF" mask="url(#mask-8)"></path>
                            </g>
                            <g id="Group-1156" stroke-width="1" fill="none" transform="translate(452.802153, 69.763122)">
                                <mask id="mask-10" fill="white">
                                    <use xlink:href="#path-9"></use>
                                </mask>
                                <g id="Clip-1155"></g>
                                <path d="M3.94890594,1.97442799 C3.94890594,3.06478375 3.06432304,3.94885599 1.97445297,3.94885599 C0.883583937,3.94885599 0,3.06478375 0,1.97442799 C0,0.883572761 0.883583937,0 1.97445297,0 C3.06432304,0 3.94890594,0.883572761 3.94890594,1.97442799" id="Fill-1154" fill="#583AFF" mask="url(#mask-10)"></path>
                            </g>
                            <g id="Group-1159" stroke-width="1" fill="none" transform="translate(452.802153, 92.798116)">
                                <mask id="mask-12" fill="white">
                                    <use xlink:href="#path-11"></use>
                                </mask>
                                <g id="Clip-1158"></g>
                                <path d="M3.94890594,1.97442799 C3.94890594,3.06528323 3.06432304,3.94885599 1.97445297,3.94885599 C0.883583937,3.94885599 0,3.06528323 0,1.97442799 C0,0.883572761 0.883583937,0 1.97445297,0 C3.06432304,0 3.94890594,0.883572761 3.94890594,1.97442799" id="Fill-1157" fill="#583AFF" mask="url(#mask-12)"></path>
                            </g>
                            <g id="Group-1162" stroke-width="1" fill="none" transform="translate(452.802153, 115.833109)">
                                <mask id="mask-14" fill="white">
                                    <use xlink:href="#path-13"></use>
                                </mask>
                                <g id="Clip-1161"></g>
                                <path d="M3.94890594,1.97442799 C3.94890594,3.06528323 3.06432304,3.94885599 1.97445297,3.94885599 C0.883583937,3.94885599 0,3.06528323 0,1.97442799 C0,0.884072236 0.883583937,0 1.97445297,0 C3.06432304,0 3.94890594,0.884072236 3.94890594,1.97442799" id="Fill-1160" fill="#583AFF" mask="url(#mask-14)"></path>
                            </g>
                            <g id="Group-1165" stroke-width="1" fill="none" transform="translate(452.802153, 138.868102)">
                                <mask id="mask-16" fill="white">
                                    <use xlink:href="#path-15"></use>
                                </mask>
                                <g id="Clip-1164"></g>
                                <path d="M3.94890594,1.97442799 C3.94890594,3.06478375 3.06432304,3.94885599 1.97445297,3.94885599 C0.883583937,3.94885599 0,3.06478375 0,1.97442799 C0,0.883572761 0.883583937,0 1.97445297,0 C3.06432304,0 3.94890594,0.883572761 3.94890594,1.97442799" id="Fill-1163" fill="#583AFF" mask="url(#mask-16)"></path>
                            </g>
                            <g id="Group-1168" stroke-width="1" fill="none" transform="translate(452.802153, 161.903096)">
                                <mask id="mask-18" fill="white">
                                    <use xlink:href="#path-17"></use>
                                </mask>
                                <g id="Clip-1167"></g>
                                <path d="M3.94890594,1.97442799 C3.94890594,3.06478375 3.06432304,3.94885599 1.97445297,3.94885599 C0.883583937,3.94885599 0,3.06478375 0,1.97442799 C0,0.883572761 0.883583937,0 1.97445297,0 C3.06432304,0 3.94890594,0.883572761 3.94890594,1.97442799" id="Fill-1166" fill="#583AFF" mask="url(#mask-18)"></path>
                            </g>
                            <g id="Group-1171" stroke-width="1" fill="none" transform="translate(452.802153, 184.938089)">
                                <mask id="mask-20" fill="white">
                                    <use xlink:href="#path-19"></use>
                                </mask>
                                <g id="Clip-1170"></g>
                                <path d="M3.94890594,1.97442799 C3.94890594,3.06528323 3.06432304,3.94885599 1.97445297,3.94885599 C0.883583937,3.94885599 0,3.06528323 0,1.97442799 C0,0.883572761 0.883583937,0 1.97445297,0 C3.06432304,0 3.94890594,0.883572761 3.94890594,1.97442799" id="Fill-1169" fill="#583AFF" mask="url(#mask-20)"></path>
                            </g>
                            <g id="Group-1174" stroke-width="1" fill="none" transform="translate(452.802153, 207.973082)">
                                <mask id="mask-22" fill="white">
                                    <use xlink:href="#path-21"></use>
                                </mask>
                                <g id="Clip-1173"></g>
                                <path d="M3.94890594,1.97442799 C3.94890594,3.06528323 3.06432304,3.94885599 1.97445297,3.94885599 C0.883583937,3.94885599 0,3.06528323 0,1.97442799 C0,0.884072236 0.883583937,0 1.97445297,0 C3.06432304,0 3.94890594,0.884072236 3.94890594,1.97442799" id="Fill-1172" fill="#583AFF" mask="url(#mask-22)"></path>
                            </g>
                            <g id="Group-1177" stroke-width="1" fill="none" transform="translate(452.802153, 231.008075)">
                                <mask id="mask-24" fill="white">
                                    <use xlink:href="#path-23"></use>
                                </mask>
                                <g id="Clip-1176"></g>
                                <path d="M3.94890594,1.97442799 C3.94890594,3.06478375 3.06432304,3.94885599 1.97445297,3.94885599 C0.883583937,3.94885599 0,3.06478375 0,1.97442799 C0,0.883572761 0.883583937,0 1.97445297,0 C3.06432304,0 3.94890594,0.883572761 3.94890594,1.97442799" id="Fill-1175" fill="#583AFF" mask="url(#mask-24)"></path>
                            </g>
                            <g id="Group-1180" stroke-width="1" fill="none" transform="translate(452.802153, 254.043069)">
                                <mask id="mask-26" fill="white">
                                    <use xlink:href="#path-25"></use>
                                </mask>
                                <g id="Clip-1179"></g>
                                <path d="M3.94890594,1.97442799 C3.94890594,3.06528323 3.06432304,3.94885599 1.97445297,3.94885599 C0.883583937,3.94885599 0,3.06528323 0,1.97442799 C0,0.883572761 0.883583937,0 1.97445297,0 C3.06432304,0 3.94890594,0.883572761 3.94890594,1.97442799" id="Fill-1178" fill="#583AFF" mask="url(#mask-26)"></path>
                            </g>
                            <g id="Group-1183" stroke-width="1" fill="none" transform="translate(452.802153, 277.736205)">
                                <mask id="mask-28" fill="white">
                                    <use xlink:href="#path-27"></use>
                                </mask>
                                <g id="Clip-1182"></g>
                                <path d="M3.94890594,1.97442799 C3.94890594,3.06528323 3.06432304,3.94885599 1.97445297,3.94885599 C0.883583937,3.94885599 0,3.06528323 0,1.97442799 C0,0.884072236 0.883583937,0 1.97445297,0 C3.06432304,0 3.94890594,0.884072236 3.94890594,1.97442799" id="Fill-1181" fill="#583AFF" mask="url(#mask-28)"></path>
                            </g>
                            <g id="Group-1186" stroke-width="1" fill="none" transform="translate(452.802153, 300.771198)">
                                <mask id="mask-30" fill="white">
                                    <use xlink:href="#path-29"></use>
                                </mask>
                                <g id="Clip-1185"></g>
                                <path d="M3.94890594,1.97442799 C3.94890594,3.06478375 3.06432304,3.94885599 1.97445297,3.94885599 C0.883583937,3.94885599 0,3.06478375 0,1.97442799 C0,0.883572761 0.883583937,0 1.97445297,0 C3.06432304,0 3.94890594,0.883572761 3.94890594,1.97442799" id="Fill-1184" fill="#583AFF" mask="url(#mask-30)"></path>
                            </g>
                            <g id="Group-1189" stroke-width="1" fill="none" transform="translate(452.802153, 323.806191)">
                                <mask id="mask-32" fill="white">
                                    <use xlink:href="#path-31"></use>
                                </mask>
                                <g id="Clip-1188"></g>
                                <path d="M3.94890594,1.97442799 C3.94890594,3.06528323 3.06432304,3.94885599 1.97445297,3.94885599 C0.883583937,3.94885599 0,3.06528323 0,1.97442799 C0,0.883572761 0.883583937,0 1.97445297,0 C3.06432304,0 3.94890594,0.883572761 3.94890594,1.97442799" id="Fill-1187" fill="#583AFF" mask="url(#mask-32)"></path>
                            </g>
                            <g id="Group-1192" stroke-width="1" fill="none" transform="translate(452.802153, 346.841184)">
                                <mask id="mask-34" fill="white">
                                    <use xlink:href="#path-33"></use>
                                </mask>
                                <g id="Clip-1191"></g>
                                <path d="M3.94890594,1.97442799 C3.94890594,3.06528323 3.06432304,3.94885599 1.97445297,3.94885599 C0.883583937,3.94885599 0,3.06528323 0,1.97442799 C0,0.884072236 0.883583937,0 1.97445297,0 C3.06432304,0 3.94890594,0.884072236 3.94890594,1.97442799" id="Fill-1190" fill="#583AFF" mask="url(#mask-34)"></path>
                            </g>
                            <g id="Group-1195" stroke-width="1" fill="none" transform="translate(452.802153, 369.876178)">
                                <mask id="mask-36" fill="white">
                                    <use xlink:href="#path-35"></use>
                                </mask>
                                <g id="Clip-1194"></g>
                                <path d="M3.94890594,1.97417823 C3.94890594,3.06517145 3.06432304,3.94885599 1.97445297,3.94885599 C0.883583937,3.94885599 0,3.06517145 0,1.97417823 C0,0.883684534 0.883583937,0 1.97445297,0 C3.06432304,0 3.94890594,0.883684534 3.94890594,1.97417823" id="Fill-1193" fill="#583AFF" mask="url(#mask-36)"></path>
                            </g>
                            <g id="Group-1198" stroke-width="1" fill="none" transform="translate(452.802153, 392.911171)">
                                <mask id="mask-38" fill="white">
                                    <use xlink:href="#path-37"></use>
                                </mask>
                                <g id="Clip-1197"></g>
                                <path d="M3.94890594,1.97442799 C3.94890594,3.06478375 3.06432304,3.94885599 1.97445297,3.94885599 C0.883583937,3.94885599 0,3.06478375 0,1.97442799 C0,0.883572761 0.883583937,0 1.97445297,0 C3.06432304,0 3.94890594,0.883572761 3.94890594,1.97442799" id="Fill-1196" fill="#583AFF" mask="url(#mask-38)"></path>
                            </g>
                            <g id="Group-1201" stroke-width="1" fill="none" transform="translate(452.802153, 415.946164)">
                                <mask id="mask-40" fill="white">
                                    <use xlink:href="#path-39"></use>
                                </mask>
                                <g id="Clip-1200"></g>
                                <path d="M3.94890594,1.97442799 C3.94890594,3.06528323 3.06432304,3.94885599 1.97445297,3.94885599 C0.883583937,3.94885599 0,3.06528323 0,1.97442799 C0,0.883572761 0.883583937,0 1.97445297,0 C3.06432304,0 3.94890594,0.883572761 3.94890594,1.97442799" id="Fill-1199" fill="#583AFF" mask="url(#mask-40)"></path>
                            </g>
                        </g>
                    </g>
                </g>
            </g>
        </g>
    </g>
</svg>