<?xml version="1.0" encoding="UTF-8"?>
<svg width="15px" height="15px" viewBox="0 0 15 15" version="1.1" xmlns="http://www.w3.org/2000/svg" xmlns:xlink="http://www.w3.org/1999/xlink">
    <title>0E579DDC-A40A-44AA-A4AA-B5FE757E3903</title>
    <g id="Page-1" stroke="none" stroke-width="1" fill="none" fill-rule="evenodd">
        <g id="Home" transform="translate(-789.000000, -9.000000)" fill="#4739AC">
            <g id="RRSS" transform="translate(731.000000, 9.000000)">
                <g id="Instagram_icon" transform="translate(58.000000, 0.750000)">
                    <path d="M13.055631,10.0047979 C13.055631,11.5582598 11.7733394,12.8163917 10.1915541,12.8163917 L4.32444591,12.8163917 C2.74198606,12.8163917 1.46036896,11.5582598 1.46036896,10.0047979 L1.46036896,4.24520214 C1.46036896,2.69240242 2.74198606,1.43360827 4.32444591,1.43360827 L10.1915541,1.43360827 C11.7733394,1.43360827 13.055631,2.69240242 13.055631,4.24520214 L13.055631,10.0047979 Z M10.1915541,0 L4.32444591,0 C1.93928903,0 0,1.9044145 0,4.24520214 L0,10.0047979 C0,12.3455855 1.93928903,14.25 4.32444591,14.25 L10.1915541,14.25 C12.5760364,14.25 14.516,12.3455855 14.516,10.0047979 L14.516,4.24520214 C14.516,1.9044145 12.5760364,0 10.1915541,0 L10.1915541,0 Z" id="Fill-1"></path>
                    <path d="M7.25752783,9.37685757 C5.9907505,9.37685757 4.96343322,8.36902765 4.96343322,7.12546352 C4.96343322,5.88123722 5.9907505,4.87274512 7.25752783,4.87274512 C8.52497968,4.87274512 9.55162243,5.88123722 9.55162243,7.12546352 C9.55162243,8.36902765 8.52497968,9.37685757 7.25752783,9.37685757 M7.25752783,3.43913685 C5.18737894,3.43913685 3.50373879,5.09258713 3.50373879,7.12546352 C3.50373879,9.15701557 5.18737894,10.8104658 7.25752783,10.8104658 C9.32767671,10.8104658 11.0119914,9.15701557 11.0119914,7.12546352 C11.0119914,5.09258713 9.32767671,3.43913685 7.25752783,3.43913685" id="Fill-3"></path>
                    <path d="M11.0194787,2.58380576 C11.5159367,2.58380576 11.9193088,2.97978625 11.9193088,3.46714684 C11.9193088,3.95450743 11.5159367,4.35048792 11.0194787,4.35048792 C10.5230207,4.35048792 10.1196486,3.95450743 10.1196486,3.46714684 C10.1196486,2.97978625 10.5230207,2.58380576 11.0194787,2.58380576" id="Fill-5"></path>
                </g>
            </g>
        </g>
    </g>
</svg>