<?xml version="1.0" encoding="UTF-8"?>
<svg width="121px" height="34px" viewBox="0 0 121 34" version="1.1" xmlns="http://www.w3.org/2000/svg" xmlns:xlink="http://www.w3.org/1999/xlink">
    <title>Logo_Taitiko Copy</title>
    <defs>
        <polygon id="path-1" points="0 0 16.2580701 0 16.2580701 33.9925455 0 33.9925455"></polygon>
        <polygon id="path-3" points="0 0 16.2583834 0 16.2583834 33.9926107 0 33.9926107"></polygon>
        <polygon id="path-5" points="-1.85538107e-14 0 16.8988895 0 16.8988895 33.9977115 -1.85538107e-14 33.9977115"></polygon>
        <polygon id="path-7" points="0 34 120.931974 34 120.931974 0 0 0"></polygon>
    </defs>
    <g id="Page-1" stroke="none" stroke-width="1" fill="none" fill-rule="evenodd">
        <g id="Home" transform="translate(-165.000000, -48.000000)">
            <g id="Head-Menu" transform="translate(0.000000, 34.000000)">
                <g id="Logo_Taitiko-Copy" transform="translate(165.000000, 14.000000)">
                    <path d="M92.3304034,18.2483574 C93.5433136,21.7695832 94.8195457,25.2692664 96.0729297,28.7767832 C96.1571415,29.0130983 96.2237275,29.2559415 96.3281762,29.5921356 C94.868506,29.5921356 93.4930476,29.6169422 92.1215061,29.5647179 C91.925012,29.557537 91.6580151,29.2102452 91.5685809,28.9667492 C90.8772613,27.0990765 90.2224987,25.2176948 89.5540272,23.3415356 C89.4952748,23.1757234 89.4202024,23.0151335 89.1799704,22.8623774 L89.1799704,29.551009 L84.8858245,29.551009 L84.8858245,1.01563274 L89.117954,1.01563274 L89.117954,10.4499587 C89.178012,10.4617092 89.23807,10.4734597 89.2974752,10.4852101 C89.4202024,10.1300847 89.5631665,9.78018163 89.6597815,9.41852812 C90.3491427,6.84843807 91.0398095,4.27900083 91.7011002,1.70238274 C91.8362306,1.17361135 92.0379471,0.930768197 92.638527,0.958185972 C93.8312002,1.01236872 95.0277903,0.974506077 96.3523299,0.974506077 C96.1036115,1.95371234 95.8868806,2.84087322 95.6531767,3.72346447 C94.5199086,7.99280379 93.3637924,12.2556151 92.2664286,16.5334409 C92.1286869,17.0687403 92.151535,17.7267669 92.3304034,18.2483574 M96.7414012,20.1382255 C98.0874834,14.9667108 99.4727339,9.8062938 100.878874,4.6504464 C101.035547,4.07402031 100.939585,3.72411727 100.504817,3.3063226 C99.428996,2.27162798 98.4243304,1.16316648 97.3824549,0.0919148283 C97.3223969,0.0305512355 97.1937945,0.0148839353 97.0978323,0.0142311311 C95.1727128,0.010314306 93.2482461,0.0109671102 91.3198625,0.0109671102 C91.1938713,0.418316917 91.0855058,0.768872761 90.8896646,1.40078721 C90.5821938,0.98429814 90.4118119,0.722523664 90.2094426,0.488166964 C90.0566864,0.311257032 89.8654148,0.0344680606 89.6871993,0.0312040397 C87.8195265,-0.00208897337 85.9505482,0.0109671102 84.0854866,0.0109671102 C84.0482768,0.159806463 84.0149838,0.231614922 84.0149838,0.303423382 C84.011067,10.1751282 84.0078029,20.0468329 84.0215118,29.9185377 C84.0221646,30.120907 84.1925465,30.3598333 84.3472611,30.5197704 C85.4753067,31.6889426 86.6203253,32.8417948 87.7601213,33.9998694 L93.7058618,33.9998694 L93.7058618,32.6407311 C94.2267995,33.2060596 94.5930227,33.6029645 94.9579402,33.9998694 L101.216374,33.9998694 C99.7488701,29.924413 98.2663518,25.8541789 96.832141,21.7663191 C96.6584951,21.2688824 96.6101876,20.6428432 96.7414012,20.1382255" id="Fill-1" fill="#000000"></path>
                    <path d="M31.5782271,29.5491158 L27.2520938,29.5491158 L27.2520938,28.6867615 C27.2520938,25.9058157 27.2377321,23.1255227 27.2644971,20.3452297 C27.2697195,19.7648868 27.0954208,19.5938521 26.5124666,19.5925465 C24.381061,19.5879769 24.381061,19.5670871 24.381061,21.707632 L24.381061,28.5679512 L24.381061,29.5380182 L20.0914847,29.5380182 C20.0790815,29.2690628 20.0562333,28.9942323 20.0562333,28.7200545 C20.0536221,20.6905631 20.070595,12.6610718 20.043807,4.63158036 C20.0359964,2.26777643 22.0231323,0.644252443 23.8601233,0.798967033 C25.2316648,0.914513373 26.6208321,0.819856767 28.0028186,0.82181518 C29.9710232,0.825079201 31.5344892,2.25472035 31.5429756,4.2000768 C31.5782271,11.7092833 31.5703934,19.2191425 31.5782271,26.7290018 C31.5795327,27.6357468 31.5782271,28.5431446 31.5782271,29.5491158 M34.5164987,4.76540522 C33.3962867,3.68175028 32.3302575,2.54260699 31.2452969,1.42304783 C30.3711921,0.520219649 29.3201774,0.0169076282 28.0517789,0.0110323906 C26.5653438,0.00385154465 25.0795615,-0.0111629514 23.5937792,0.0142964115 C21.1992934,0.0554230747 19.2474089,1.96030567 19.2415337,4.34173531 C19.2180328,12.8392873 19.227172,21.3374921 19.2454505,29.8356969 C19.2461033,30.0824568 19.4399862,30.3736075 19.6247298,30.5674904 C20.73058,31.7242594 21.8599313,32.8581802 22.9814488,33.9999347 L28.9271893,33.9999347 L28.9271893,32.5970585 C29.438335,33.168915 29.8084749,33.5847513 30.1792677,33.9999347 L36.1250082,33.9999347 C36.1223969,25.5278421 36.1067296,17.0557495 36.1289546,8.58365686 C36.1334946,7.05217825 35.6092929,5.82164238 34.5164987,4.76540522" id="Fill-3" fill="#000000"></path>
                    <g id="Group-7" transform="translate(0.000000, 0.007455)">
                        <mask id="mask-2" fill="white">
                            <use xlink:href="#path-1"></use>
                        </mask>
                        <g id="Clip-6"></g>
                        <path d="M11.7594839,1.81471777 C11.7118292,2.6953506 11.7248853,3.58120587 11.7555671,4.46379712 C11.775804,5.03108395 11.5773515,5.26152383 10.9904806,5.23475885 C10.1901427,5.19820182 9.38654071,5.2256196 8.52288079,5.2256196 C8.50003264,5.70412506 8.46478121,6.08797391 8.46478121,6.47116997 C8.46151719,13.8223978 8.4628228,21.1736257 8.46217,28.5242007 C8.46217,29.5791323 8.45890598,29.5797851 7.39679358,29.5804379 C6.33337557,29.5804379 5.27126318,29.5804379 4.1027437,29.5804379 L4.1027437,5.2256196 C3.19991552,5.2256196 2.39892479,5.20342425 1.59989248,5.23345325 C1.05349538,5.25369018 0.78910969,5.10746204 0.811305032,4.49513172 C0.851778891,3.35859965 0.822402703,2.21945636 0.822402703,1.01111582 C1.14554077,0.98565646 1.39491197,0.94975223 1.64428316,0.949099426 C4.71899084,0.945182601 7.79500413,0.966072335 10.8697118,0.931294316 C11.5577674,0.924292867 11.7973465,1.13123179 11.7594839,1.81471777 M15.8434268,3.42388006 C14.8348444,2.40942237 13.8158171,1.40475674 12.769372,0.428814496 C12.5421961,0.217305942 12.1903347,0.0214646891 11.8946144,0.0195062765 C8.16840812,-0.00791149894 4.44220187,0.000574955368 0.715342818,0.00383897626 C0.492083789,0.00383897626 0.267519152,0.0345207726 0.000522243342,0.0547577021 C0.000522243342,1.93026411 -0.00470019008,3.74505972 0.0109671102,5.55920253 C0.0122727185,5.70543067 0.125860646,5.88103499 0.23749016,5.99070609 C1.03325845,6.77602952 1.8224987,7.56918659 2.65612964,8.31403616 C3.11766219,8.72726121 3.29653054,9.16529281 3.29457213,9.79459604 C3.27041837,16.4179472 3.27694641,23.0406456 3.2906553,29.6639968 C3.2906553,29.9290353 3.37878386,30.2691463 3.55504099,30.446709 C4.7431446,31.6478687 5.96584682,32.8144298 7.17810418,33.9927413 L12.9678244,33.9927413 L12.9678244,9.49104209 L16.2546935,9.49104209 C16.2546935,7.64948151 16.269708,5.88691023 16.236415,4.12499175 C16.2324981,3.88671823 16.0281704,3.60992926 15.8434268,3.42388006" id="Fill-5" fill="#000000" mask="url(#mask-2)"></path>
                    </g>
                    <g id="Group-10" transform="translate(51.948015, 0.007389)">
                        <mask id="mask-4" fill="white">
                            <use xlink:href="#path-3"></use>
                        </mask>
                        <g id="Clip-9"></g>
                        <path d="M11.0769641,5.23018922 C10.2485556,5.21321632 9.41949427,5.2256196 8.52645815,5.2256196 C8.5023044,5.69759702 8.46574736,6.08079307 8.46509456,6.46333632 C8.46183054,13.8145642 8.46313615,21.165792 8.46183054,28.5163671 C8.46183054,29.5791323 8.45921932,29.5797851 7.40494058,29.5804379 C6.34152257,29.5804379 5.27745176,29.5804379 4.10893228,29.5804379 L4.10893228,5.22496679 C3.11732273,5.22496679 2.2843446,5.21191071 1.45201928,5.23018922 C0.981347465,5.23998129 0.805743141,5.05132088 0.815535203,4.58130187 C0.83838335,3.5694554 0.835772133,2.55565051 0.816840812,1.54249842 C0.809007162,1.11425888 0.956540906,0.940612972 1.40175336,0.94191858 C4.63313404,0.953669055 7.86451472,0.954321859 11.0958954,0.941248456 C11.5626504,0.939307363 11.7578388,1.10316121 11.7500052,1.57252742 C11.7343379,2.5856795 11.7336851,3.59817878 11.7500052,4.61133086 C11.7584916,5.09766998 11.5247877,5.23932848 11.0769641,5.23018922 M15.8437402,3.42388006 C14.8351577,2.40942237 13.8154776,1.40475674 12.7703381,0.4294673 C12.5431623,0.217305942 12.190648,0.0214646891 11.8949277,0.0195062765 C8.16872146,-0.00791149894 4.44251522,0.000574955368 0.716308968,0.00383897626 C0.491744331,0.00383897626 0.268485302,0.0351735768 0.000835589348,0.0547577021 C0.000835589348,1.93026411 -0.00438684408,3.74505972 0.0112804562,5.55920253 C0.0125860646,5.70608347 0.126173992,5.88103499 0.237803506,5.9913589 C1.0335718,6.77602952 1.82281205,7.56918659 2.65579018,8.31403616 C3.11862834,8.72726121 3.29684388,9.16529281 3.29423267,9.79459604 C3.27073172,16.4179472 3.27660695,23.0406456 3.29096865,29.6639968 C3.29162145,29.9290353 3.37844441,30.2691463 3.55470153,30.446709 C4.74280514,31.6478687 5.96681297,32.8144298 7.17776472,33.9927413 L12.967485,33.9927413 L12.967485,9.49104209 L16.2550068,9.49104209 C16.2550068,7.64948151 16.2700213,5.88691023 16.2367283,4.12499175 C16.2321587,3.88671823 16.0291366,3.61058206 15.8437402,3.42388006" id="Fill-8" fill="#000000" mask="url(#mask-4)"></path>
                    </g>
                    <g id="Group-13" transform="translate(104.033084, 0.002288)">
                        <mask id="mask-6" fill="white">
                            <use xlink:href="#path-5"></use>
                        </mask>
                        <g id="Clip-12"></g>
                        <path d="M12.3159431,26.2757562 C12.2983174,28.1192752 10.7250593,29.5835149 8.87305385,29.590043 C7.4127309,29.5952654 5.95306076,29.5920014 4.49339062,29.5906958 C2.48797618,29.5893902 0.850743304,28.0983854 0.841604045,26.1125551 C0.810922249,18.8383582 0.80961664,11.5635084 0.842909653,4.28931147 C0.851396108,2.30413396 2.49254581,0.820310063 4.50122427,0.818351651 C5.96089441,0.817698847 7.42056455,0.813782022 8.88023469,0.819657259 C10.7289761,0.826838105 12.2989702,2.29368909 12.3165959,4.14177772 C12.3525001,7.85623349 12.3270408,11.5719949 12.3270408,15.2871035 C12.3270408,18.9499877 12.3525001,22.6135247 12.3159431,26.2757562 M14.4786833,3.97400705 C13.646358,3.19455886 12.8812715,2.3419966 12.1024761,1.50771286 C11.2042176,0.546785113 10.1212154,0.0108328828 8.79210613,0.00756886189 C7.33243599,0.004304841 5.87341865,-0.00940404674 4.41440131,0.0108328828 C1.97356649,0.0441258959 0.0210291935,1.94378605 0.0138483475,4.36568955 C-0.00769419037,11.6111631 -0.000513344416,18.8572895 0.0112371308,26.1027631 C0.0138483475,27.4214275 0.590927241,28.5037768 1.56491107,29.3824513 C2.45272476,30.1821364 3.36730341,30.9544037 4.21725445,31.7912987 C5.14488919,32.7058773 6.07513514,33.5910798 7.35397852,33.9977768 L13.3003718,33.9977768 C15.1791422,33.4787975 16.3724682,32.276985 16.8992812,30.4106178 L16.8992812,7.32942052 C16.4612496,5.94547566 15.5114195,4.94081003 14.4786833,3.97400705" id="Fill-11" fill="#000000" mask="url(#mask-6)"></path>
                    </g>
                    <mask id="mask-8" fill="white">
                        <use xlink:href="#path-7"></use>
                    </mask>
                    <g id="Clip-15"></g>
                    <path d="M40.1370121,29.5446115 L44.3397654,29.5446115 L44.3397654,0.868882361 L40.1370121,0.868882361 L40.1370121,29.5446115 Z M45.3052628,0.203022099 C45.2093005,0.107712689 45.0539331,0.0195841253 44.9246779,0.0189313212 C43.057658,0.00652804178 41.190638,0.0104448668 39.3294933,0.0104448668 C39.2942419,0.167770674 39.2642129,0.240884742 39.2642129,0.31399881 C39.2602961,10.1824396 39.257032,20.0515331 39.2713937,29.9206267 C39.2713937,30.122996 39.4424284,30.3606167 39.597143,30.5212065 C40.7258414,31.6890732 41.8702072,32.8419254 43.0100033,34 L48.9557437,34 C48.9544381,24.1831308 48.9505213,14.3662615 48.9622743,4.54873951 C48.9629246,4.0467331 48.8369334,3.68246837 48.461571,3.32734289 C47.3883609,2.30766277 46.3601943,1.24228635 45.3052628,0.203022099 L45.3052628,0.203022099 Z" id="Fill-14" fill="#000000" mask="url(#mask-8)"></path>
                    <path d="M72.0480387,29.5256802 L76.2684177,29.5256802 L76.2684177,0.870187969 L72.0480387,0.870187969 L72.0480387,29.5256802 Z M77.2254286,0.203022099 C77.1294664,0.107712689 76.9734462,0.0195841253 76.8448438,0.0189313212 C74.9784767,0.00652804178 73.1101511,0.0104448668 71.2496592,0.0104448668 C71.2144078,0.167770674 71.183726,0.240884742 71.183726,0.31399881 C71.1798092,10.1824396 71.1771979,20.0515331 71.1915596,29.9206267 C71.1922124,30.122996 71.3632471,30.3606167 71.5179617,30.5212065 C72.6460073,31.6890732 73.7903731,32.8419254 74.9295163,34 L80.8759096,34 C80.8752568,24.1831308 80.8706872,14.3662615 80.8824402,4.54873951 C80.8830905,4.0467331 80.7564464,3.68246837 80.3817368,3.32734289 C79.307874,2.30831557 78.2797074,1.24228635 77.2254286,0.203022099 L77.2254286,0.203022099 Z" id="Fill-16" fill="#000000" mask="url(#mask-8)"></path>
                    <path d="M25.9681585,5.25990438 C24.9843826,5.21877772 24.4086093,5.70772805 24.3962061,6.74960352 C24.3642187,9.42022541 24.3746635,12.0908473 24.4079565,14.7608164 C24.4105677,14.9501296 24.7324002,15.2797957 24.9282415,15.2967686 C25.6482845,15.362049 26.3781195,15.3235336 27.206528,15.3235336 C27.2254594,14.9677553 27.2502659,14.7138145 27.2509187,14.4611793 C27.2535299,11.9198126 27.2541827,9.37909875 27.2515715,6.83773208 C27.2502659,5.79977344 26.8363881,5.29646142 25.9681585,5.25990438" id="Fill-17" fill="#000000" mask="url(#mask-8)"></path>
                    <path d="M109.55895,12.5363209 C109.566784,11.2633527 109.560909,9.99038458 109.560909,8.71741643 C109.560909,7.47056045 109.565478,6.22370447 109.55895,4.97684849 C109.553728,3.95390434 109.038665,3.37356143 108.162602,3.38335349 C107.319179,3.39183995 106.803464,3.96434921 106.800852,4.93376342 C106.794977,7.47904691 106.793672,10.0249832 106.802158,12.5709195 C106.804769,13.5240136 107.347902,14.0958701 108.197853,14.0867308 C109.042582,14.0775915 109.552422,13.5063879 109.55895,12.5363209" id="Fill-18" fill="#000000" mask="url(#mask-8)"></path>
                    <path d="M112.907183,3.38341877 C112.054621,3.36644587 111.499737,3.93764952 111.496473,4.88356277 C111.487334,7.45561124 111.486681,10.0276597 111.497126,12.5990554 C111.50039,13.5077588 112.028508,14.0711288 112.841902,14.0867961 C113.695117,14.1031162 114.243473,13.5338709 114.251959,12.5859993 C114.263057,11.2875718 114.254571,9.98849145 114.254571,8.68941113 C114.254571,7.41709579 114.26371,6.14412764 114.251959,4.8711595 C114.243473,3.96180328 113.72123,3.39908607 112.907183,3.38341877" id="Fill-19" fill="#000000" mask="url(#mask-8)"></path>
                    <path d="M107.682791,25.9988403 C108.531436,27.2711557 110.035497,27.7078817 111.371787,27.2554884 C112.446303,26.8905708 113.268183,26.0092852 113.208125,25.0953593 C111.553267,26.2743237 109.733249,26.3585354 107.682791,25.9988403" id="Fill-20" fill="#000000" mask="url(#mask-8)"></path>
                    <path d="M92.3304034,18.2544285 C93.5433136,21.776307 94.8195457,25.2753374 96.0729297,28.7828543 C96.1571415,29.0191694 96.2237275,29.2620126 96.3281762,29.5988595 C94.868506,29.5988595 93.4930476,29.6236661 92.1215061,29.5707889 C91.925012,29.5636081 91.6586679,29.2163163 91.5685809,28.9728203 C90.8772613,27.1051476 90.2224987,25.2244187 89.55468,23.3482595 C89.4952748,23.1817944 89.4208552,23.0218574 89.1799704,22.8684484 L89.1799704,29.55708 L84.8858245,29.55708 L84.8858245,1.02235662 L89.117954,1.02235662 L89.117954,10.4566826 C89.178012,10.4677803 89.23807,10.4795307 89.2974752,10.4912812 C89.4202024,10.1361558 89.5638193,9.78625271 89.6604343,9.4245992 C90.3491427,6.85516195 91.0398095,4.28572471 91.7011002,1.70845381 C91.8368834,1.17968243 92.0385999,0.93749208 92.6391798,0.964257051 C93.8312002,1.0184398 95.0277903,0.980577156 96.3529827,0.980577156 C96.1036115,1.96043623 95.8875334,2.8469443 95.6531767,3.72953555 C94.5199086,7.99887487 93.3644452,12.2616862 92.2664286,16.5401647 C92.1286869,17.0754642 92.151535,17.732838 92.3304034,18.2544285" id="Fill-21" fill="#FFBE1B" mask="url(#mask-8)"></path>
                    <path d="M11.7601367,1.8285045 C11.7118292,2.70913734 11.7248853,3.59499261 11.7555671,4.47693105 C11.775804,5.04421788 11.5773515,5.27531056 10.9904806,5.24854559 C10.1901427,5.21198856 9.38654071,5.23940633 8.52288079,5.23940633 C8.50003264,5.71791179 8.46543402,6.10110785 8.46478121,6.4849567 C8.46151719,13.8361846 8.4628228,21.1867596 8.46217,28.5379874 C8.46217,29.592919 8.45890598,29.5935718 7.39679358,29.5942246 C6.33337557,29.5942246 5.27126318,29.5942246 4.1033965,29.5942246 L4.1033965,5.23940633 C3.19991552,5.23940633 2.39892479,5.21721099 1.60054528,5.24723998 C1.05349538,5.26747691 0.78910969,5.12124878 0.811305032,4.50891846 C0.851778891,3.37238638 0.822402703,2.23324309 0.822402703,1.02490256 C1.14554077,0.999443196 1.39491197,0.962886162 1.64428316,0.962886162 C4.71964365,0.958969337 7.79500413,0.979859071 10.8697118,0.945081052 C11.5577674,0.938079604 11.7973465,1.14501853 11.7601367,1.8285045" id="Fill-22" fill="#FFBE1B" mask="url(#mask-8)"></path>
                    <path d="M63.0256322,5.24397596 C62.1965709,5.22635025 61.3681624,5.23875353 60.4744734,5.23875353 C60.4503197,5.71138375 60.4137626,6.09457981 60.4131098,6.47712305 C60.4098458,13.8276981 60.4111514,21.1789259 60.4104986,28.5301538 C60.4098458,29.592919 60.4072346,29.5935718 59.3536087,29.5942246 C58.2895379,29.5942246 57.225467,29.5942246 56.0569476,29.5942246 L56.0569476,5.23875353 C55.065338,5.23875353 54.2323599,5.22569744 53.4006874,5.24397596 C52.9293627,5.25376802 52.7537584,5.06510762 52.7642033,4.59508861 C52.7870514,3.58258933 52.7844402,2.56878444 52.7648561,1.55628516 C52.7570224,1.12804562 52.9045562,0.954399708 53.3497686,0.955705317 C56.5811493,0.966802988 59.81253,0.967455792 63.0439107,0.955035193 C63.5106657,0.9530941 63.7058541,1.11694795 63.6980205,1.58631415 C63.6823532,2.59881343 63.6817004,3.61196552 63.6986733,4.6251176 C63.7065069,5.11145671 63.472803,5.25311522 63.0256322,5.24397596" id="Fill-23" fill="#FFBE1B" mask="url(#mask-8)"></path>
                    <polygon id="Fill-24" fill="#FFBE1B" mask="url(#mask-8)" points="40.1370121 29.5504867 44.3397654 29.5504867 44.3397654 0.874757598 40.1370121 0.874757598"></polygon>
                    <polygon id="Fill-25" fill="#FFBE1B" mask="url(#mask-8)" points="72.0480387 29.5322082 76.2684177 29.5322082 76.2684177 0.876063207 72.0480387 0.876063207"></polygon>
                    <path d="M27.2508534,14.4670545 C27.2502006,14.7203425 27.2260469,14.9736306 27.2071156,15.3294088 C26.3780543,15.3294088 25.648872,15.3685771 24.9281762,15.3032967 C24.7329877,15.2856709 24.4105025,14.9566576 24.4085441,14.7666916 C24.3745982,12.0973753 24.3641534,9.42610065 24.3967936,6.75547876 C24.4091969,5.71360329 24.9843173,5.22465296 25.9680932,5.26643243 C26.8363228,5.30233665 27.2502006,5.80564868 27.2515062,6.84426012 C27.2541175,9.38497398 27.2534647,11.9263406 27.2508534,14.4670545 M31.5782923,26.7352034 C31.5704587,19.2253442 31.5782923,11.7154849 31.5430409,4.20627844 C31.5345545,2.26157479 29.9710885,0.83128084 28.0028839,0.828016819 C26.6215502,0.826058407 25.2317301,0.920715013 23.8601885,0.805168673 C22.0231976,0.650454083 20.0360617,2.27463088 20.0438722,4.637782 C20.0706603,12.6672734 20.0543402,20.6967648 20.0562986,28.7262562 C20.0562986,29.0010867 20.0797996,29.2752645 20.09155,29.5442198 L24.3811263,29.5442198 L24.3811263,28.5741528 L24.3811263,21.7144865 C24.3811263,19.5732888 24.3811263,19.5941785 26.5125319,19.5987482 C27.0954861,19.6000538 27.2697848,19.7710885 27.2645623,20.3514314 C27.2371446,23.1317244 27.2521591,25.9120174 27.2528119,28.6929632 L27.2528119,29.5553175 L31.5789451,29.5553175 C31.5789451,28.5493462 31.5795979,27.6426012 31.5782923,26.7352034" id="Fill-26" fill="#FFBE1B" mask="url(#mask-8)"></path>
                    <path d="M114.251633,12.592462 C114.243147,13.5403337 113.695444,14.1095789 112.842229,14.092606 C112.028835,14.0769387 111.500063,13.5135687 111.496799,12.6055181 C111.48766,10.0334697 111.48766,7.462074 111.496147,4.89002554 C111.500063,3.94345948 112.054947,3.37225582 112.906856,3.38922873 C113.721556,3.40554884 114.243147,3.96826604 114.251633,4.87762226 C114.264036,6.1499376 114.254897,7.42290575 114.254897,8.69587389 C114.254897,9.99495421 114.263383,11.2933817 114.251633,12.592462 M111.372114,27.2616247 C110.035824,27.7146708 108.53111,27.2779448 107.682465,26.0049767 C109.732922,26.3646718 111.55294,26.28046 113.208452,25.1021485 C113.26851,26.0154215 112.445977,26.89736 111.372114,27.2616247 M106.802484,12.5774475 C106.793345,10.0315112 106.794651,7.48557495 106.801179,4.93963865 C106.80379,3.97022445 107.319505,3.39836799 108.162928,3.38912239 C109.039644,3.38008947 109.554054,3.96043239 109.559929,4.98337653 C109.565805,6.23023251 109.560582,7.47708849 109.560582,8.72394447 C109.560582,9.99691262 109.56711,11.2698808 109.559277,12.5421961 C109.552748,13.5129159 109.042908,14.0841196 108.19818,14.0932588 C107.348229,14.1023981 106.805749,13.5305416 106.802484,12.5774475 M116.349746,4.1503984 C116.33212,2.30230977 114.762126,0.834805983 112.913384,0.828277941 C111.453714,0.822402703 109.994697,0.826319528 108.534374,0.827625137 C106.525696,0.828277941 104.884546,2.31210184 104.876059,4.29793215 C104.843419,11.5727819 104.844072,18.8469789 104.875407,26.1218286 C104.88324,28.1070061 106.521126,29.5980109 108.52654,29.5993165 C109.98621,29.6006221 111.445881,29.6038861 112.905551,29.5986637 C114.758209,29.5921356 116.331467,28.1278959 116.349093,26.2843769 C116.38565,22.6214926 116.359538,18.9586084 116.359538,15.2957241 C116.359538,11.5806156 116.38565,7.86485418 116.349746,4.1503984" id="Fill-27" fill="#FFBE1B" mask="url(#mask-8)"></path>
                </g>
            </g>
        </g>
    </g>
</svg>