<?xml version="1.0" encoding="UTF-8"?>
<svg width="571px" height="156px" viewBox="0 0 571 156" version="1.1" xmlns="http://www.w3.org/2000/svg" xmlns:xlink="http://www.w3.org/1999/xlink">
    <title>MARKETPLACE@1x</title>
    <defs>
        <path d="M477.182482,166.38697 L483.065693,132.433498 L492.26764,154.530637 L495.13382,154.076599 C496.189781,153.909322 497.157745,153.457822 498.037713,152.722099 C498.91768,151.986376 499.835361,150.896823 500.790754,149.45344 L515.423358,127.307648 L509.540146,161.261121 L519.722628,159.648091 L529,106 L519.119221,107.565236 L496.717762,142.122804 L484.951338,112.977847 L476.277372,114.351909 L467,168 L477.182482,166.38697 Z M537.069837,157.21295 L543.756315,143.937384 L563.295691,140.783061 L565.673105,152.595406 L576,150.928293 L565.895988,104.672738 C565.252105,101.783765 563.320456,100.59914 560.10104,101.118863 L555.494799,101.862468 L526,159 L537.069837,157.21295 Z M561,131.803889 L548,134 L557.611702,114.011681 L557.680851,114 L561,131.803889 Z M592.313901,147.329005 L595.602392,127.835534 L608.233184,125.789171 C609.927255,125.514708 611.247633,125.829572 612.19432,126.733764 C613.141006,127.637957 613.763827,129.148584 614.06278,131.265647 L615.856502,143.514779 L626.544096,141.783241 L624.675635,128.63973 C624.326856,126.278938 623.865969,124.465093 623.292975,123.198195 C622.71998,121.931297 621.711011,120.886115 620.266069,120.062647 L620.266069,119.911566 C623.20578,118.428084 625.597409,116.567565 627.440957,114.33001 C629.284504,112.092454 630.430493,109.62798 630.878924,106.936587 L631.775785,101.503441 C631.925262,100.623097 632,99.8304019 632,99.1253563 C632,95.7512094 630.716991,93.2647932 628.150972,91.6661077 C625.584953,90.0674222 622.134529,89.6192304 617.799701,90.3215325 L591.192825,94.6322141 L582,149 L592.313901,147.329005 Z M596,119 L598.732308,102.86172 L615.864615,100.082352 C617.144615,99.8746983 618.153846,100.059749 618.892308,100.637505 C619.630769,101.215261 620,102.102045 620,103.297856 C620,103.69646 619.975385,103.999406 619.926154,104.206694 L619.113846,109.196456 C618.818462,111.038093 617.969231,112.633258 616.566154,113.981951 C615.163077,115.330645 613.427692,116.172712 611.36,116.508153 L596,119 Z M643.315938,139.341605 L646.231312,122.229368 L652.660085,115.423109 L666.339915,135.640261 L678.150917,133.741519 L660.434415,107.12603 L686,80 L672.768688,82.1270713 L648.623413,108.12512 L652.510578,85.3837738 L642.19464,87.0421684 L633,141 L643.315938,139.341605 Z M723.535826,125.66965 L725.214953,116.460261 L695.066978,121.180712 L697.433022,107.539637 L725.291277,103.177702 L726.894081,93.9802636 L699.035826,98.3421989 L701.249221,85.917889 L731.397196,81.1974385 L733,72 L692.319315,78.3696206 L684.152648,124.828038 C684.050883,125.539809 684,126.019951 684,126.268465 C684,127.958355 684.559709,129.225115 685.679128,130.068746 C686.798546,130.912376 688.325026,131.182818 690.258567,130.880072 L723.535826,125.66965 Z M755.681592,121.349688 L763.462687,76.8586536 L780.39801,74.2038046 L782,65 L737.60199,71.9600096 L736,81.1638141 L752.935323,78.5089651 L745.154229,123 L755.681592,121.349688 Z M787.313901,116.356294 L790.2287,99.4699256 L808.091181,96.623217 C812.924265,95.8529778 816.848032,93.9520517 819.862481,90.9204385 C822.876931,87.8888253 824.78276,84.0059775 825.57997,79.271895 L826.775785,72.1707712 C826.925262,71.2552657 827,70.37644 827,69.5342942 C827,66.0170972 825.704534,63.4246568 823.113602,61.7569731 C820.522671,60.0892894 817.009965,59.6088047 812.575486,60.315519 L786.192825,64.5200719 L777,118 L787.313901,116.356294 Z M792,89 L795.036145,70.8040873 L811.590361,68.0860053 C812.939759,67.864444 814.012048,68.0709617 814.807229,68.7055584 C815.60241,69.340155 816,70.3238826 816,71.6567412 C816,71.952932 815.951807,72.4051311 815.855422,73.0133385 L814.698795,79.2011117 C814.361446,81.1817421 813.60241,82.7996656 812.421687,84.0548821 C811.240964,85.3100985 809.759036,86.0840954 807.975904,86.3768728 L792,89 Z M866.44,104.67404 L868,95.1849415 L839.771429,99.8701401 L847.348571,54 L837.097143,55.7014669 L829.148571,103.710045 C829.049524,104.444387 829,104.965394 829,105.273067 C829,107.016545 829.544762,108.297836 830.634286,109.11694 C831.72381,109.936044 833.234286,110.185313 835.165714,109.864747 L866.44,104.67404 Z M879.069837,101.21295 L885.756315,87.9373838 L905.295691,84.7830614 L907.673105,96.5954062 L918,94.9282928 L907.895988,48.6727378 C907.252105,45.7837645 905.320456,44.5991397 902.10104,45.1188633 L897.494799,45.8624678 L868,103 L879.069837,101.21295 Z M903,76.8038892 L890,79 L899.611702,59.0116814 L899.680851,59 L903,76.8038892 Z M949.565611,90.365009 C955.246858,89.4567843 959.997989,86.9046845 963.819005,82.7087094 C967.64002,78.5127344 970.128708,73.1132461 971.285068,66.5102448 L961.028658,68.1498715 C960.375063,71.7642787 959.080442,74.7165011 957.144796,77.0065388 C955.20915,79.2965765 952.833585,80.6666422 950.0181,81.1167358 L941.948718,82.4067363 C939.635998,82.776456 937.826043,82.313676 936.518854,81.0183961 C935.211664,79.7231162 934.558069,77.7968622 934.558069,75.2396339 C934.558069,74.6880749 934.658622,73.6942364 934.859729,72.2581184 L937.122172,58.9598695 C937.72549,55.3534998 939.03268,52.3867326 941.043741,50.0595679 C943.054801,47.7324032 945.543489,46.331718 948.509804,45.8575122 L956.428356,44.5916239 C958.690799,44.2299416 960.450478,44.6255464 961.707391,45.7784385 C962.964304,46.9313306 963.59276,48.6610364 963.59276,50.967556 C963.59276,51.7698237 963.517345,52.6092183 963.366516,53.4857399 L973.622926,51.8461131 C973.874309,50.3016743 974,48.9778958 974,47.8747778 C974,43.2115968 972.466566,39.7462491 969.399698,37.4787344 C966.332831,35.2112198 962.159879,34.4994253 956.880845,35.3433508 L948.962293,36.6092391 C943.07994,37.5496133 938.190548,40.0987451 934.294118,44.2566345 C930.397687,48.4145239 927.89643,53.715738 926.790347,60.1602768 L924.377074,74.3851889 C924.125691,76.0299112 924,77.4289023 924,78.5821621 C924,83.4459099 925.571141,87.0556549 928.713424,89.4113969 C931.855706,91.7671389 936.116642,92.5150097 941.496229,91.6550094 L949.565611,90.365009 Z M1014.53583,79.6696504 L1016.21495,70.4602614 L986.066978,75.1807119 L988.433022,61.5396374 L1016.29128,57.1777021 L1017.89408,47.9802636 L990.035826,52.3421989 L992.249221,39.917889 L1022.3972,35.1974385 L1024,26 L983.319315,32.3696206 L975.152648,78.8280381 C975.050883,79.5398093 975,80.0199515 975,80.2684648 C975,81.958355 975.559709,83.2251153 976.679128,84.0687456 C977.798546,84.9123759 979.325026,85.182818 981.258567,84.8800718 L1014.53583,79.6696504 Z" id="path-1"></path>
        <filter x="-2.2%" y="-7.1%" width="104.3%" height="117.0%" filterUnits="objectBoundingBox" id="filter-2">
            <feMorphology radius="0.5" operator="dilate" in="SourceAlpha" result="shadowSpreadOuter1"></feMorphology>
            <feOffset dx="0" dy="2" in="shadowSpreadOuter1" result="shadowOffsetOuter1"></feOffset>
            <feMorphology radius="1" operator="erode" in="SourceAlpha" result="shadowInner"></feMorphology>
            <feOffset dx="0" dy="2" in="shadowInner" result="shadowInner"></feOffset>
            <feComposite in="shadowOffsetOuter1" in2="shadowInner" operator="out" result="shadowOffsetOuter1"></feComposite>
            <feGaussianBlur stdDeviation="3.5" in="shadowOffsetOuter1" result="shadowBlurOuter1"></feGaussianBlur>
            <feColorMatrix values="0 0 0 0 0.694471247   0 0 0 0 0.641003716   0 0 0 0 1  0 0 0 1 0" type="matrix" in="shadowBlurOuter1"></feColorMatrix>
        </filter>
    </defs>
    <g id="Page-1" stroke="none" stroke-width="1" fill="none" fill-rule="evenodd" opacity="0.372039795">
        <g id="Market-Copy" transform="translate(-460.000000, -21.000000)" fill-rule="nonzero">
            <g id="MARKETPLACE">
                <use fill="black" fill-opacity="1" filter="url(#filter-2)" xlink:href="#path-1"></use>
                <use stroke="#DCD5FF" stroke-width="1" xlink:href="#path-1"></use>
            </g>
        </g>
    </g>
</svg>