<?xml version="1.0" encoding="UTF-8"?>
<svg width="556px" height="557px" viewBox="0 0 556 557" version="1.1" xmlns="http://www.w3.org/2000/svg" xmlns:xlink="http://www.w3.org/1999/xlink">
    <title>Group 3</title>
    <g id="Page-1" stroke="none" stroke-width="1" fill="none" fill-rule="evenodd">
        <g id="Home" transform="translate(-135.000000, -1359.000000)" stroke="#C6C6C6">
            <g id="Capsules" transform="translate(0.000000, 1017.151306)">
                <g id="Group-3" transform="translate(135.000000, 341.848694)">
                    <g id="Group" transform="translate(500.000000, 0.000000)">
                        <polyline id="Rectangle-Copy-2" transform="translate(42.000000, 14.000000) scale(1, -1) rotate(-90.000000) translate(-42.000000, -14.000000) " points="28 0 56 0 56 28"></polyline>
                        <polyline id="Rectangle-Copy" points="0 28 28 28 28 56"></polyline>
                    </g>
                    <g id="Group" transform="translate(500.000000, 501.000000)">
                        <polyline id="Rectangle-Copy-2" transform="translate(42.000000, 14.000000) scale(1, -1) rotate(-90.000000) translate(-42.000000, -14.000000) " points="28 0 56 0 56 28"></polyline>
                        <polyline id="Rectangle-Copy" points="0 28 28 28 28 56"></polyline>
                    </g>
                    <g id="Group">
                        <polyline id="Rectangle-Copy-2" transform="translate(42.000000, 14.000000) scale(1, -1) rotate(-90.000000) translate(-42.000000, -14.000000) " points="28 0 56 0 56 28"></polyline>
                        <polyline id="Rectangle-Copy" points="0 28 28 28 28 56"></polyline>
                    </g>
                    <g id="Group" transform="translate(0.000000, 501.000000)">
                        <polyline id="Rectangle-Copy-2" transform="translate(42.000000, 14.000000) scale(1, -1) rotate(-90.000000) translate(-42.000000, -14.000000) " points="28 0 56 0 56 28"></polyline>
                        <polyline id="Rectangle-Copy" points="0 28 28 28 28 56"></polyline>
                    </g>
                </g>
            </g>
        </g>
    </g>
</svg>