<?xml version="1.0" encoding="UTF-8"?>
<svg width="39px" height="39px" viewBox="0 0 39 39" version="1.1" xmlns="http://www.w3.org/2000/svg" xmlns:xlink="http://www.w3.org/1999/xlink">
    <title>Profile</title>
    <defs>
        <circle id="path-1" cx="19.5" cy="19.5" r="19.5"></circle>
    </defs>
    <g id="Page-1" stroke="none" stroke-width="1" fill="none" fill-rule="evenodd">
        <g id="Home" transform="translate(-1217.000000, -44.000000)">
            <g id="Head-Menu" transform="translate(0.000000, 34.000000)">
                <g id="Profile" transform="translate(1217.000000, 10.000000)">
                    <mask id="mask-2" fill="white">
                        <use xlink:href="#path-1"></use>
                    </mask>
                    <circle stroke="#B7F5FE" cx="19.5" cy="19.5" r="19"></circle>
                    <path d="M23.2902038,21.5121605 C23.2902038,22.2530119 22.6549292,22.8536824 21.8708189,22.8536824 C21.0869678,22.8536824 20.4516932,22.2530119 20.4516932,21.5121605 L20.4516932,14.5001716 C20.4516932,13.759075 21.0869678,13.1586496 21.8708189,13.1586496 C22.6549292,13.1586496 23.2902038,13.759075 23.2902038,14.5001716 L23.2902038,21.5121605 Z M19.5483068,21.5121605 C19.5483068,22.2530119 18.9127729,22.8536824 18.1291811,22.8536824 C17.3450708,22.8536824 16.7097962,22.2530119 16.7097962,21.5121605 L16.7097962,14.5001716 C16.7097962,13.759075 17.3450708,13.1586496 18.1291811,13.1586496 C18.9127729,13.1586496 19.5483068,13.759075 19.5483068,14.5001716 L19.5483068,21.5121605 Z M20,7 L20,7 C17.2385002,7 15,9.11570321 15,11.7254708 L15,27.2745292 C15,29.8842968 17.2385002,32 20,32 C22.7612405,32 25,29.8842968 25,27.2745292 L25,11.7254708 C25,9.11570321 22.7612405,7 20,7 L20,7 Z" id="Fill-16-Copy" fill="#B7F5FE" mask="url(#mask-2)"></path>
                </g>
            </g>
        </g>
    </g>
</svg>