<?xml version="1.0" encoding="UTF-8"?>
<svg width="20px" height="15px" viewBox="0 0 20 15" version="1.1" xmlns="http://www.w3.org/2000/svg" xmlns:xlink="http://www.w3.org/1999/xlink">
    <title>C8371FCC-55F9-4699-9C6F-DBD6E3A43088</title>
    <g id="Page-1" stroke="none" stroke-width="1" fill="none" fill-rule="evenodd">
        <g id="Home" transform="translate(-754.000000, -9.000000)" fill="#FFBE1B">
            <g id="RRSS" transform="translate(731.000000, 9.000000)">
                <g id="Twitter-icon" transform="translate(23.000000, 0.000000)">
                    <path d="M19.1,1.77554165 C18.3905528,2.07741875 17.6332777,2.27703586 16.8441173,2.37369257 C17.6557423,1.90511767 18.275331,1.16898581 18.5666464,0.281565185 C17.810096,0.71722077 16.9738324,1.02610198 16.0832189,1.19770265 C15.3650757,0.458068734 14.3411238,0 13.2236901,0 C11.0547672,0 9.30977349,1.70129809 9.30977349,3.78572096 C9.30977349,4.08619724 9.33586144,4.37406612 9.40035664,4.64932761 C6.14516068,4.49523721 3.26389195,2.98725252 1.32976059,0.689904744 C0.991341958,1.25653717 0.792783701,1.90511767 0.792783701,2.60342734 C0.792783701,3.91389615 1.49136093,5.07587785 2.53270478,5.74827232 C1.90369541,5.73706575 1.28628068,5.55986179 0.763072429,5.28249907 L0.763072429,5.32382331 C0.763072429,7.16310235 2.1203703,8.69069854 3.90014797,9.04300523 C3.58201996,9.12705454 3.23418067,9.16767837 2.87402208,9.16767837 C2.62328793,9.16767837 2.37037979,9.15367015 2.13268961,9.10254016 C2.63995523,10.6021199 4.07914027,11.7038663 5.79224874,11.7395872 C4.45958948,12.7467781 2.76822097,13.353334 0.93699207,13.353334 C0.615240733,13.353334 0.307258034,13.3400261 0,13.3015035 C1.73412376,14.382938 3.78999886,15 6.00674963,15 C13.2120955,15 17.1521,9.23141576 17.1521,4.22978147 C17.1521,4.06308368 17.1463027,3.90128876 17.1376067,3.74089466 C17.9144478,3.20788196 18.5680958,2.5424916 19.1,1.77554165" id="Fill-1"></path>
                </g>
            </g>
        </g>
    </g>
</svg>