<?xml version="1.0" encoding="UTF-8"?>
<svg width="24px" height="24px" viewBox="0 0 24 24" version="1.1" xmlns="http://www.w3.org/2000/svg" xmlns:xlink="http://www.w3.org/1999/xlink">
    <title>60A3EB0F-B69F-4171-81DD-35D2351D26D8</title>
    <g id="Page-1" stroke="none" stroke-width="1" fill="none" fill-rule="evenodd">
        <g id="Home" transform="translate(-1245.000000, -5.000000)">
            <g id="User-1" transform="translate(1245.000000, 5.000000)">
                <path d="M24,0 L24,24 L0,24 L0,0 L24,0 Z" id="Vector"></path>
                <g id="Group" transform="translate(5.100006, 4.250000)" fill="#4739AC" fill-rule="nonzero">
                    <path d="M10.3500061,3.69000244 C10.3500061,1.66000247 8.70001125,0 6.66001129,0 C4.63001132,0 2.98001099,1.65000248 2.98001099,3.69000244 C2.98001099,5.7300024 4.63001132,7.37000275 6.66001129,7.37000275 C8.69001126,7.37000275 10.3500061,5.72000241 10.3500061,3.69000244 Z" id="Vector"></path>
                    <path d="M4.27000427,8.80000305 C1.91000438,8.80000305 0,10.7199998 0,13.0699997 L0,13.75 C0,14.71 0.790000021,15.5 1.75,15.5 L12.0600052,15.5 C13.0200052,15.5 13.8100052,14.71 13.8100052,13.75 L13.8100052,13.0800018 C13.8100052,10.7200019 11.8900008,8.80000305 9.54000092,8.80000305 L4.27000427,8.80000305 Z" id="Vector"></path>
                </g>
            </g>
        </g>
    </g>
</svg>