<?xml version="1.0" encoding="UTF-8"?>
<svg width="421px" height="243px" viewBox="0 0 421 243" version="1.1" xmlns="http://www.w3.org/2000/svg" xmlns:xlink="http://www.w3.org/1999/xlink">
    <title>YOURTAITIKO </title>
    <defs>
        <path d="M1027.07317,615.432941 L1032.34146,584.88155 L1069,532 L1051.65854,534.939096 L1026.30488,572.05675 L1012.58537,541.561363 L997,544.20283 L1017.19512,587.448609 L1011.92683,618 L1027.07317,615.432941 Z M1098.82991,605.431294 C1107.77419,603.900512 1115.1239,600.050031 1120.87903,593.879851 C1126.63416,587.709671 1130.31818,579.816193 1131.93109,570.199419 L1135.45015,549.738895 C1135.81672,547.322588 1136,545.231845 1136,543.466667 C1136,536.332408 1133.63563,531.055395 1128.90689,527.635631 C1124.17815,524.215866 1117.70821,523.208638 1109.49707,524.613947 L1097.84018,526.608983 C1088.96921,528.127217 1081.71114,531.962014 1076.06598,538.113373 C1070.42082,544.264732 1066.75513,552.155073 1065.06891,561.784395 L1061.54985,582.244919 C1061.18328,584.661226 1061,586.678419 1061,588.296499 C1061,593.003639 1062.06305,596.958837 1064.18915,600.162093 C1066.31525,603.365348 1069.33944,605.605858 1073.26173,606.883623 C1077.18402,608.161388 1081.82111,608.34229 1087.17302,607.42633 L1098.82991,605.431294 Z M1088.55,593.77741 C1084.95667,594.391313 1082.13333,593.735359 1080.08,591.809548 C1078.02667,589.883736 1077,586.974694 1077,583.082419 C1077,581.760515 1077.11,580.383098 1077.33,578.950168 L1080.63,559.879717 C1081.58333,554.429227 1083.56333,549.978362 1086.57,546.527122 C1089.57667,543.075882 1093.28,540.974403 1097.68,540.222685 L1109.34,538.230631 C1113.00667,537.604199 1115.86667,538.253888 1117.92,540.1797 C1119.97333,542.105511 1121,545.014554 1121,548.906828 C1121,550.155293 1120.89,551.53271 1120.67,553.039079 L1117.37,572.10953 C1116.41667,577.560021 1114.43667,582.010886 1111.43,585.462125 C1108.42333,588.913365 1104.68333,591.021109 1100.21,591.785356 L1088.55,593.77741 Z M1178.92163,590.465776 C1187.04935,589.067093 1193.76197,585.477954 1199.05951,579.698358 C1204.35704,573.918763 1207.76778,566.542301 1209.29173,557.568972 L1218,506 L1202.97823,508.585066 L1194.37881,559.696092 C1193.58055,564.445208 1191.87518,568.343896 1189.2627,571.392155 C1186.65022,574.440413 1183.4209,576.295481 1179.57475,576.957358 L1168.03628,578.942988 C1164.98839,579.467494 1162.61176,578.888253 1160.90639,577.205264 C1159.20102,575.522275 1158.34833,572.997127 1158.34833,569.629821 C1158.34833,568.458584 1158.45718,567.195412 1158.67489,565.840306 L1167.27431,514.72928 L1152.25254,517.314345 L1143.54427,568.883317 C1143.18142,570.995423 1143,572.856702 1143,574.467153 C1143,581.128564 1145.17707,586.115986 1149.5312,589.42942 C1153.88534,592.742854 1159.83599,593.750183 1167.38316,592.451406 L1178.92163,590.465776 Z M1233.26457,580.425723 L1238.13154,552.159292 L1256.82511,549.006735 C1259.33234,548.583907 1261.2865,549.019766 1262.68759,550.314313 C1264.08869,551.60886 1265.01046,553.786106 1265.45291,556.846052 L1268.10762,574.549656 L1283.92526,571.882108 L1281.15994,552.885016 C1280.64375,549.473022 1279.96163,546.854426 1279.1136,545.029227 C1278.26557,543.204029 1276.7723,541.706337 1274.63378,540.536152 L1274.63378,540.317461 C1278.98455,538.125794 1282.52417,535.396629 1285.25262,532.129965 C1287.98107,528.863302 1289.67713,525.27869 1290.34081,521.376131 L1291.66816,513.498116 C1291.88939,512.221562 1292,511.073008 1292,510.052452 C1292,505.168366 1290.10115,501.588617 1286.30344,499.313205 C1282.50573,497.037793 1277.3991,496.441058 1270.98356,497.523001 L1231.60538,504.163889 L1218,583 L1233.26457,580.425723 Z M1242,540 L1245.98462,516.444861 L1270.96923,512.134942 C1272.8359,511.812937 1274.30769,512.067221 1275.38462,512.897794 C1276.46154,513.728367 1277,515.014808 1277,516.757115 C1277,517.337884 1276.9641,517.779653 1276.89231,518.082422 L1275.70769,525.364895 C1275.27692,528.052664 1274.03846,530.389739 1271.99231,532.37612 C1269.94615,534.3625 1267.41538,535.615772 1264.4,536.135935 L1242,540 Z M1025.23881,721.412231 L1036.40299,655.746919 L1060.70149,651.583987 L1063,638 L999.298507,648.913634 L997,662.497621 L1021.29851,658.334688 L1010.13433,724 L1025.23881,721.412231 Z M1057.38336,716.19769 L1067.27935,696.535306 L1096.19762,691.588946 L1099.7162,708.956821 L1115,706.342585 L1100.04606,638.344469 C1099.09312,634.097722 1096.23427,632.381842 1091.46954,633.196832 L1084.6523,634.362894 L1041,719 L1057.38336,716.19769 Z M1095,679.396125 L1074,683 L1089.5266,652.01917 L1089.6383,652 L1095,679.396125 Z M1140.33333,701.407079 L1154,622 L1138.66667,624.592921 L1125,704 L1140.33333,701.407079 Z M1189.23881,693.412231 L1200.40299,627.746919 L1224.70149,623.583987 L1227,610 L1163.29851,620.913634 L1161,634.497621 L1185.29851,630.334688 L1174.13433,696 L1189.23881,693.412231 Z M1238.33333,685.407079 L1252,606 L1236.66667,608.592921 L1223,688 L1238.33333,685.407079 Z M1270.18195,680.390377 L1274.4725,655.044939 L1283.93371,644.883468 L1304.06629,674.566002 L1321.44852,671.578173 L1295.37518,632.497219 L1333,592 L1313.5275,595.347125 L1277.99295,634.154889 L1283.71368,600.471818 L1268.53173,603.081441 L1255,683 L1270.18195,680.390377 Z M1364.82991,664.431294 C1373.77419,662.900512 1381.1239,659.050031 1386.87903,652.879851 C1392.63416,646.709671 1396.31818,638.816193 1397.93109,629.199419 L1401.45015,608.738895 C1401.81672,606.322588 1402,604.231845 1402,602.466667 C1402,595.332408 1399.63563,590.055395 1394.90689,586.635631 C1390.17815,583.215866 1383.70821,582.208638 1375.49707,583.613947 L1363.84018,585.608983 C1354.96921,587.127217 1347.71114,590.962014 1342.06598,597.113373 C1336.42082,603.264732 1332.75513,611.155073 1331.06891,620.784395 L1327.54985,641.244919 C1327.18328,643.661226 1327,645.678419 1327,647.296499 C1327,652.003639 1328.06305,655.958837 1330.18915,659.162093 C1332.31525,662.365348 1335.33944,664.605858 1339.26173,665.883623 C1343.18402,667.161388 1347.82111,667.34229 1353.17302,666.42633 L1364.82991,664.431294 Z M1354.55,652.77741 C1350.95667,653.391313 1348.13333,652.735359 1346.08,650.809548 C1344.02667,648.883736 1343,645.974694 1343,642.082419 C1343,640.760515 1343.11,639.383098 1343.33,637.950168 L1346.63,618.879717 C1347.58333,613.429227 1349.56333,608.978362 1352.57,605.527122 C1355.57667,602.075882 1359.28,599.974403 1363.68,599.222685 L1375.34,597.230631 C1379.00667,596.604199 1381.86667,597.253888 1383.92,599.1797 C1385.97333,601.105511 1387,604.014554 1387,607.906828 C1387,609.155293 1386.89,610.53271 1386.67,612.039079 L1383.37,631.10953 C1382.41667,636.560021 1380.43667,641.010886 1377.43,644.462125 C1374.42333,647.913365 1370.68333,650.021109 1366.21,650.785356 L1354.55,652.77741 Z" id="path-1"></path>
        <filter x="-3.2%" y="-4.6%" width="106.3%" height="111.1%" filterUnits="objectBoundingBox" id="filter-2">
            <feMorphology radius="1" operator="dilate" in="SourceAlpha" result="shadowSpreadOuter1"></feMorphology>
            <feOffset dx="0" dy="2" in="shadowSpreadOuter1" result="shadowOffsetOuter1"></feOffset>
            <feMorphology radius="1" operator="erode" in="SourceAlpha" result="shadowInner"></feMorphology>
            <feOffset dx="0" dy="2" in="shadowInner" result="shadowInner"></feOffset>
            <feComposite in="shadowOffsetOuter1" in2="shadowInner" operator="out" result="shadowOffsetOuter1"></feComposite>
            <feGaussianBlur stdDeviation="3.5" in="shadowOffsetOuter1" result="shadowBlurOuter1"></feGaussianBlur>
            <feColorMatrix values="0 0 0 0 0.694471247   0 0 0 0 0.641003716   0 0 0 0 1  0 0 0 1 0" type="matrix" in="shadowBlurOuter1"></feColorMatrix>
        </filter>
    </defs>
    <g id="Page-1" stroke="none" stroke-width="1" fill="none" fill-rule="evenodd" opacity="0.372039795">
        <g id="Home" transform="translate(-989.000000, -491.000000)" fill-rule="nonzero">
            <g id="YOURTAITIKO-">
                <use fill="black" fill-opacity="1" filter="url(#filter-2)" xlink:href="#path-1"></use>
                <use stroke="#8772FF" stroke-width="2" xlink:href="#path-1"></use>
            </g>
        </g>
    </g>
</svg>