<?xml version="1.0" encoding="UTF-8"?>
<svg width="17px" height="12px" viewBox="0 0 17 12" version="1.1" xmlns="http://www.w3.org/2000/svg" xmlns:xlink="http://www.w3.org/1999/xlink">
    <title>4AC69DC9-2B9D-49F4-B37A-7F36880C3975</title>
    <defs>
        <polygon id="path-1" points="0 0 16.044 0 16.044 11.25 0 11.25"></polygon>
    </defs>
    <g id="Page-1" stroke="none" stroke-width="1" fill="none" fill-rule="evenodd">
        <g id="Home" transform="translate(-820.000000, -11.000000)">
            <g id="RRSS" transform="translate(731.000000, 9.000000)">
                <g id="Youtube" transform="translate(89.000000, 2.250000)">
                    <mask id="mask-2" fill="white">
                        <use xlink:href="#path-1"></use>
                    </mask>
                    <g id="Clip-2"></g>
                    <path d="M6.42301078,8.03403141 L6.42301078,3.21596859 L10.5993728,5.625 L6.42301078,8.03403141 Z M15.7134721,1.75981675 C15.529192,1.07133508 14.9868073,0.528795812 14.3000046,0.343586387 C13.0440246,0 8.02206535,0 8.02206535,0 C8.02206535,0 3.00010606,0 1.74412613,0.330497382 C1.07039288,0.516361257 0.514938701,1.07198953 0.330658608,1.75981675 C0,3.01767016 0,5.625 0,5.625 C0,5.625 0,8.24541885 0.330658608,9.49018325 C0.515592177,10.1780105 1.05732337,10.7205497 1.74477961,10.9064136 C3.01317557,11.25 8.02206535,11.25 8.02206535,11.25 C8.02206535,11.25 13.0440246,11.25 14.3000046,10.9188482 C14.9868073,10.7342932 15.529192,10.1910995 15.7141256,9.5026178 C16.044196,8.24541885 16.044196,5.63808901 16.044196,5.63808901 C16.044196,5.63808901 16.0572002,3.01767016 15.7134721,1.75981675 L15.7134721,1.75981675 Z" id="Fill-1" fill="#4739AC" mask="url(#mask-2)"></path>
                </g>
            </g>
        </g>
    </g>
</svg>